<?xml version="1.0" encoding="utf-8"?>
<!-- Generator: Adobe Illustrator 22.0.0, SVG Export Plug-In . SVG Version: 6.00 Build 0)  -->
<svg version="1.1" id="Layer_1" xmlns="http://www.w3.org/2000/svg" xmlns:xlink="http://www.w3.org/1999/xlink" x="0px" y="0px"
	 viewBox="0 0 841.9 595.3" style="enable-background:new 0 0 841.9 595.3;" xml:space="preserve">
<style type="text/css">
	.st0{fill:#CCCB01;}
	.st1{fill:#031A43;}
	.st2{fill:none;stroke:url(#SVGID_1_);stroke-miterlimit:10;}
	.st3{fill:none;stroke:url(#SVGID_2_);stroke-miterlimit:10;}
	.st4{fill:none;stroke:url(#SVGID_3_);stroke-miterlimit:10;}
	.st5{fill:none;stroke:url(#SVGID_4_);stroke-miterlimit:10;}
	.st6{fill:none;stroke:url(#SVGID_5_);stroke-miterlimit:10;}
	.st7{fill:none;stroke:url(#SVGID_6_);stroke-miterlimit:10;}
	.st8{fill:none;stroke:url(#SVGID_7_);stroke-miterlimit:10;}
	.st9{fill:none;stroke:url(#SVGID_8_);stroke-miterlimit:10;}
	.st10{fill:none;stroke:url(#SVGID_9_);stroke-miterlimit:10;}
	.st11{fill:none;stroke:url(#SVGID_10_);stroke-miterlimit:10;}
	.st12{fill:none;stroke:url(#SVGID_11_);stroke-miterlimit:10;}
	.st13{fill:none;stroke:url(#SVGID_12_);stroke-miterlimit:10;}
	.st14{fill:none;stroke:url(#SVGID_13_);stroke-miterlimit:10;}
	.st15{fill:none;stroke:url(#SVGID_14_);stroke-miterlimit:10;}
	.st16{fill:none;stroke:url(#SVGID_15_);stroke-miterlimit:10;}
	.st17{fill:none;stroke:url(#SVGID_16_);stroke-miterlimit:10;}
	.st18{fill:none;stroke:url(#SVGID_17_);stroke-miterlimit:10;}
	.st19{fill:none;stroke:url(#SVGID_18_);stroke-miterlimit:10;}
	.st20{fill:none;stroke:url(#SVGID_19_);stroke-miterlimit:10;}
	.st21{fill:none;stroke:url(#SVGID_20_);stroke-miterlimit:10;}
	.st22{fill:none;stroke:url(#SVGID_21_);stroke-miterlimit:10;}
	.st23{fill:none;stroke:url(#SVGID_22_);stroke-miterlimit:10;}
	.st24{fill:none;stroke:url(#SVGID_23_);stroke-miterlimit:10;}
	.st25{fill:none;stroke:url(#SVGID_24_);stroke-miterlimit:10;}
	.st26{fill:none;stroke:url(#SVGID_25_);stroke-miterlimit:10;}
	.st27{fill:none;stroke:url(#SVGID_26_);stroke-miterlimit:10;}
	.st28{fill:none;stroke:url(#SVGID_27_);stroke-miterlimit:10;}
	.st29{fill:none;stroke:url(#SVGID_28_);stroke-miterlimit:10;}
	.st30{fill:none;stroke:url(#SVGID_29_);stroke-miterlimit:10;}
	.st31{fill:none;stroke:url(#SVGID_30_);stroke-miterlimit:10;}
	.st32{fill:none;stroke:url(#SVGID_31_);stroke-miterlimit:10;}
	.st33{fill:none;stroke:url(#SVGID_32_);stroke-miterlimit:10;}
	.st34{fill:none;stroke:url(#SVGID_33_);stroke-miterlimit:10;}
	.st35{fill:none;stroke:url(#SVGID_34_);stroke-miterlimit:10;}
	.st36{fill:none;stroke:url(#SVGID_35_);stroke-miterlimit:10;}
	.st37{fill:none;stroke:url(#SVGID_36_);stroke-miterlimit:10;}
	.st38{fill:none;stroke:url(#SVGID_37_);stroke-miterlimit:10;}
	.st39{fill:none;stroke:url(#SVGID_38_);stroke-miterlimit:10;}
	.st40{fill:none;stroke:url(#SVGID_39_);stroke-miterlimit:10;}
	.st41{fill:none;stroke:url(#SVGID_40_);stroke-miterlimit:10;}
	.st42{fill:none;stroke:url(#SVGID_41_);stroke-miterlimit:10;}
	.st43{fill:none;stroke:url(#SVGID_42_);stroke-miterlimit:10;}
	.st44{fill:none;stroke:url(#SVGID_43_);stroke-miterlimit:10;}
	.st45{fill:none;stroke:url(#SVGID_44_);stroke-miterlimit:10;}
	.st46{fill:none;stroke:url(#SVGID_45_);stroke-miterlimit:10;}
	.st47{fill:none;stroke:url(#SVGID_46_);stroke-miterlimit:10;}
	.st48{fill:none;stroke:url(#SVGID_47_);stroke-miterlimit:10;}
	.st49{fill:none;stroke:url(#SVGID_48_);stroke-miterlimit:10;}
	.st50{fill:none;stroke:url(#SVGID_49_);stroke-miterlimit:10;}
	.st51{fill:none;stroke:url(#SVGID_50_);stroke-miterlimit:10;}
	.st52{fill:none;stroke:url(#SVGID_51_);stroke-miterlimit:10;}
	.st53{fill:none;stroke:url(#SVGID_52_);stroke-miterlimit:10;}
</style>
<g>
	
		<linearGradient id="SVGID_1_" gradientUnits="userSpaceOnUse" x1="252.5629" y1="273.3689" x2="556.153" y2="273.3689" gradientTransform="matrix(0.7269 0.6867 -0.6867 0.7269 310.3866 -148.6666)">
		<stop  offset="0" style="stop-color:#F9ED32"/>
		<stop  offset="2.301295e-02" style="stop-color:#F8DE32"/>
		<stop  offset="0.1334" style="stop-color:#F49B34"/>
		<stop  offset="0.2261" style="stop-color:#F16A35"/>
		<stop  offset="0.2963" style="stop-color:#F04C36"/>
		<stop  offset="0.3359" style="stop-color:#EF4136"/>
		<stop  offset="0.3854" style="stop-color:#EF3D41"/>
		<stop  offset="0.5273" style="stop-color:#EE355A"/>
		<stop  offset="0.6742" style="stop-color:#EE2F6D"/>
		<stop  offset="0.8281" style="stop-color:#EE2B77"/>
		<stop  offset="1" style="stop-color:#EE2A7B"/>
	</linearGradient>
	<path class="st2" d="M365.8,221c-5.9-3.6-12.7-8.6-19.1-6c-6.3,2.5-8,10.5-12.4,15.7c-9.5,11.3-27.8,6.7-41.5,12
		c-12.4,4.8-20.2,18-21.5,31.3c-1.2,13.3,3.1,26.5,9.1,38.4c10.7,21.1,27,39.3,46.7,52.3c4.9,3.3,10.4,6.3,16.3,6.2
		c4.7-0.1,9.2-2.2,13.3-4.6c9.1-5.2,17.3-11.8,24.3-19.6c2.4-2.6,4.7-5.4,8-6.7c5.1-2,10.8,0.3,15.7,2.7
		c20.9,10.5,39.6,24.7,59.6,36.8c20,12.1,42,22.2,65.4,23.1c14.6,0.5,30.9-3.7,38.7-16c6.6-10.4,5.2-24.8-2.1-34.7
		c-7.3-9.9-19.7-15.4-32-15.6c-5.4-0.1-11.2,0.7-15.9-2c-2.9-1.7-5-4.5-6.9-7.4c-6.1-9.3-11.2-19.3-15-29.7
		c-4.8-13.4-8.4-28.6-19.9-36.9c-8.7-6.3-20.2-7.1-29.7-12c-13.1-6.6-21.9-15.3-37-16.6C394.4,230.6,379.4,229.4,365.8,221z"/>
	
		<linearGradient id="SVGID_2_" gradientUnits="userSpaceOnUse" x1="251.0506" y1="274.4716" x2="557.3286" y2="274.4716" gradientTransform="matrix(0.7269 0.6867 -0.6867 0.7269 310.3866 -148.6666)">
		<stop  offset="0" style="stop-color:#F9ED32"/>
		<stop  offset="1.869874e-02" style="stop-color:#F8E132"/>
		<stop  offset="0.1306" style="stop-color:#F39E35"/>
		<stop  offset="0.2246" style="stop-color:#EF6D37"/>
		<stop  offset="0.2957" style="stop-color:#ED4F38"/>
		<stop  offset="0.3359" style="stop-color:#EC4438"/>
		<stop  offset="0.376" style="stop-color:#EB3F46"/>
		<stop  offset="0.4446" style="stop-color:#EA3959"/>
		<stop  offset="0.5168" style="stop-color:#E93563"/>
		<stop  offset="0.5974" style="stop-color:#E93467"/>
		<stop  offset="0.6533" style="stop-color:#EA316D"/>
		<stop  offset="0.8169" style="stop-color:#EB2C77"/>
		<stop  offset="1" style="stop-color:#EB2A7B"/>
	</linearGradient>
	<path class="st3" d="M446.8,246.5c-13.3-6.4-22.4-14.8-37.6-16c-15.8-1.2-30.8-2.8-44.9-10.4c-6.3-3.4-13.5-7.9-20.5-5.3
		c-6.5,2.4-8.5,10.3-12.9,15.7c-9.4,11.3-27.3,6.9-40.8,12.6c-12.3,5.2-20.6,18.5-22.2,32c-1.5,13.5,2.7,27.1,8.9,39.2
		c10.8,21.2,27.1,39.5,47,52.4c5.7,3.7,12,6.9,18.8,6.8c4.9-0.1,9.5-2.2,13.7-4.6c9-5.2,17.3-11.8,24.2-19.7
		c2.5-2.9,4.9-6.3,8.2-7.8c4.9-2.3,10.7-0.1,15.5,2.3c20.7,9.9,39.1,24.2,59.1,35.9c20.5,11.9,43.2,21.7,67,22.5
		c15.3,0.5,32.3-3.8,40.7-16.4c7-10.5,6.1-25.1-1.1-35.4c-7.1-10.2-19.7-15.9-32.3-16.4c-5.8-0.2-12.1,0.6-17.1-1.8
		c-3.1-1.5-5.3-4.1-7.3-6.9c-6.4-8.9-11.2-18.9-15.1-29.2c-5.1-13.3-9-28.4-20.7-36.8C468.5,252.6,456.8,251.3,446.8,246.5z"/>
	
		<linearGradient id="SVGID_3_" gradientUnits="userSpaceOnUse" x1="249.5377" y1="275.5685" x2="558.5161" y2="275.5685" gradientTransform="matrix(0.7269 0.6867 -0.6867 0.7269 310.3866 -148.6666)">
		<stop  offset="0" style="stop-color:#F9ED32"/>
		<stop  offset="1.572659e-02" style="stop-color:#F8E333"/>
		<stop  offset="0.1287" style="stop-color:#F2A036"/>
		<stop  offset="0.2235" style="stop-color:#ED6F39"/>
		<stop  offset="0.2954" style="stop-color:#EA513A"/>
		<stop  offset="0.3359" style="stop-color:#E9463B"/>
		<stop  offset="0.3738" style="stop-color:#E84248"/>
		<stop  offset="0.4432" style="stop-color:#E63C5B"/>
		<stop  offset="0.516" style="stop-color:#E53865"/>
		<stop  offset="0.5974" style="stop-color:#E53769"/>
		<stop  offset="0.6451" style="stop-color:#E6346E"/>
		<stop  offset="0.8126" style="stop-color:#E82C78"/>
		<stop  offset="1" style="stop-color:#E92A7C"/>
	</linearGradient>
	<path class="st4" d="M446.8,244.5c-13.6-6.3-22.8-14.3-38.2-15.4c-16.1-1.1-31.2-3.1-45.7-9.9c-6.7-3.1-14.4-7.1-22-4.5
		c-6.7,2.3-9,10.1-13.5,15.6c-9.4,11.3-26.9,7.2-40,13.2c-12.2,5.5-21.1,19.1-23,32.8c-1.8,13.6,2.4,27.6,8.7,40
		c10.8,21.2,27.3,39.6,47.3,52.5c6.4,4.1,13.7,7.5,21.3,7.4c5-0.1,9.8-2.2,14.2-4.7c9-5.2,17.3-11.8,24.1-19.7
		c2.7-3.2,5-7.1,8.4-8.9c4.8-2.6,10.5-0.4,15.4,1.8c20.5,9.3,38.6,23.7,58.5,34.9c20.9,11.8,44.3,21.3,68.7,22
		c16,0.4,33.7-3.9,42.7-16.8c7.4-10.6,7-25.5-0.1-36.2c-7-10.6-19.7-16.5-32.5-17.3c-6.2-0.3-12.9,0.6-18.2-1.6
		c-3.2-1.3-5.7-3.7-7.8-6.5c-6.6-8.6-11.2-18.6-15.2-28.7c-5.3-13.3-9.7-28.3-21.5-36.8C469.1,250.9,457.1,249.3,446.8,244.5z"/>
	
		<linearGradient id="SVGID_4_" gradientUnits="userSpaceOnUse" x1="248.017" y1="275.4914" x2="559.7157" y2="275.4914" gradientTransform="matrix(0.7269 0.6867 -0.6867 0.7269 310.3866 -148.6666)">
		<stop  offset="0" style="stop-color:#F9ED32"/>
		<stop  offset="1.115272e-02" style="stop-color:#F8E632"/>
		<stop  offset="0.1258" style="stop-color:#F0A337"/>
		<stop  offset="0.2219" style="stop-color:#EB723A"/>
		<stop  offset="0.2948" style="stop-color:#E7543C"/>
		<stop  offset="0.3359" style="stop-color:#E6493D"/>
		<stop  offset="0.376" style="stop-color:#E4444B"/>
		<stop  offset="0.4446" style="stop-color:#E23E5E"/>
		<stop  offset="0.5168" style="stop-color:#E03A68"/>
		<stop  offset="0.5974" style="stop-color:#E0396C"/>
		<stop  offset="0.6162" style="stop-color:#E1386E"/>
		<stop  offset="0.7974" style="stop-color:#E52D78"/>
		<stop  offset="1" style="stop-color:#E62A7C"/>
	</linearGradient>
	<path class="st5" d="M446.8,242.5c-13.8-6.1-23.2-13.8-38.7-14.8c-16.4-1-31.7-3.4-46.5-9.4c-7.1-2.9-15.3-6.4-23.4-3.8
		c-6.9,2.3-9.4,9.9-14.1,15.5c-9.3,11.4-26.5,7.5-39.3,13.8c-12.1,5.9-21.5,19.6-23.7,33.6c-2.2,13.8,2.1,28.2,8.5,40.8
		c10.9,21.3,27.4,39.7,47.6,52.6c7.2,4.6,15.3,8.1,23.8,8c5.2-0.1,10.1-2.2,14.6-4.8c9-5.3,17.3-11.8,23.9-19.8
		c2.9-3.5,5.2-7.9,8.7-10c4.6-2.8,10.3-0.8,15.2,1.3c20.3,8.8,38.1,23.1,58,33.9c21.4,11.6,45.4,20.8,70.3,21.4
		c16.7,0.4,35.1-4,44.8-17.2c7.8-10.7,7.9-25.9,0.9-37c-6.8-10.9-19.8-17.1-32.8-18.1c-6.5-0.5-13.7,0.6-19.4-1.3
		c-3.4-1.1-6-3.3-8.3-6c-6.8-8.3-11.1-18.3-15.3-28.2c-5.6-13.2-10.4-28.1-22.3-36.8C469.8,249.3,457.5,247.3,446.8,242.5z"/>
	
		<linearGradient id="SVGID_5_" gradientUnits="userSpaceOnUse" x1="246.5016" y1="275.3989" x2="560.9258" y2="275.3989" gradientTransform="matrix(0.7269 0.6867 -0.6867 0.7269 310.3866 -148.6666)">
		<stop  offset="0" style="stop-color:#F9ED32"/>
		<stop  offset="7.984534e-03" style="stop-color:#F8E832"/>
		<stop  offset="0.1237" style="stop-color:#EFA538"/>
		<stop  offset="0.2208" style="stop-color:#E9743C"/>
		<stop  offset="0.2944" style="stop-color:#E5563E"/>
		<stop  offset="0.3359" style="stop-color:#E34B3F"/>
		<stop  offset="0.3781" style="stop-color:#E0464E"/>
		<stop  offset="0.4461" style="stop-color:#DD4161"/>
		<stop  offset="0.5176" style="stop-color:#DC3D6B"/>
		<stop  offset="0.5974" style="stop-color:#DB3C6F"/>
		<stop  offset="0.6362" style="stop-color:#DD3872"/>
		<stop  offset="0.8079" style="stop-color:#E12E7A"/>
		<stop  offset="1" style="stop-color:#E32A7D"/>
	</linearGradient>
	<path class="st6" d="M446.7,240.5c-14-5.9-23.7-13.3-39.3-14.2c-16.7-0.9-32.1-3.6-47.3-8.9c-7.6-2.7-16.2-5.7-24.8-3
		c-7,2.2-9.9,9.7-14.6,15.4c-9.3,11.4-26,7.8-38.5,14.4c-12,6.3-21.9,20.1-24.5,34.3c-2.5,14,1.7,28.8,8.3,41.7
		c10.9,21.4,27.6,39.9,47.9,52.7c7.9,5,17,8.8,26.4,8.6c5.3-0.1,10.5-2.1,15.1-4.9c9-5.3,17.3-11.8,23.8-19.9
		c3.1-3.8,5.3-8.7,8.9-11.2c4.4-3,10.2-1.1,15,0.8c20.1,8.2,37.7,22.5,57.4,32.9c21.9,11.5,46.5,20.3,72,20.9
		c17.4,0.4,36.5-4.1,46.8-17.6c8.2-10.8,8.8-26.2,2-37.7c-6.7-11.2-19.8-17.8-33-19c-6.9-0.6-14.5,0.5-20.5-1.1
		c-3.5-0.9-6.3-2.8-8.7-5.6c-6.9-7.9-11.1-18-15.4-27.8c-5.8-13.2-11-28-23.2-36.7C470.4,247.6,457.8,245.2,446.7,240.5z"/>
	
		<linearGradient id="SVGID_6_" gradientUnits="userSpaceOnUse" x1="244.9869" y1="275.2986" x2="562.1466" y2="275.2986" gradientTransform="matrix(0.7269 0.6867 -0.6867 0.7269 310.3866 -148.6666)">
		<stop  offset="0" style="stop-color:#F9ED32"/>
		<stop  offset="3.140422e-03" style="stop-color:#F9EB32"/>
		<stop  offset="0.1206" style="stop-color:#EEA839"/>
		<stop  offset="0.2191" style="stop-color:#E7773E"/>
		<stop  offset="0.2938" style="stop-color:#E25941"/>
		<stop  offset="0.3359" style="stop-color:#E04E42"/>
		<stop  offset="0.3781" style="stop-color:#DD4951"/>
		<stop  offset="0.4461" style="stop-color:#DA4364"/>
		<stop  offset="0.5176" style="stop-color:#D83F6E"/>
		<stop  offset="0.5974" style="stop-color:#D73E72"/>
		<stop  offset="0.6533" style="stop-color:#DA3875"/>
		<stop  offset="0.8169" style="stop-color:#DF2E7B"/>
		<stop  offset="1" style="stop-color:#E12A7D"/>
	</linearGradient>
	<path class="st7" d="M446.7,238.5c-14.2-5.8-24.1-12.8-39.9-13.6c-17-0.9-32.6-3.8-48.1-8.4c-8-2.4-17.1-4.9-26.2-2.2
		c-7.2,2.1-10.4,9.5-15.2,15.4c-9.3,11.4-25.6,8.1-37.8,15c-11.9,6.7-22.4,20.6-25.2,35.1c-2.8,14.2,1.4,29.3,8.1,42.5
		c11,21.5,27.8,40,48.1,52.8c8.7,5.5,18.6,9.4,28.9,9.2c5.5-0.1,10.8-2.1,15.5-4.9c8.9-5.3,17.3-11.8,23.7-20
		c3.3-4.2,5.4-9.5,9.1-12.3c4.3-3.2,10-1.5,14.8,0.4c19.9,7.6,37.2,22,56.8,31.9c22.4,11.3,47.7,19.9,73.6,20.3
		c18,0.3,37.9-4.2,48.9-18c8.6-10.9,9.7-26.6,3-38.5c-6.5-11.5-19.8-18.4-33.2-19.8c-7.3-0.8-15.4,0.5-21.7-0.8
		c-3.6-0.8-6.7-2.4-9.2-5.2c-7.1-7.6-11.1-17.7-15.5-27.3c-6-13.2-11.7-27.8-24-36.7C471,246,458.2,243.2,446.7,238.5z"/>
	
		<linearGradient id="SVGID_7_" gradientUnits="userSpaceOnUse" x1="243.4732" y1="275.1914" x2="563.3777" y2="275.1914" gradientTransform="matrix(0.7269 0.6867 -0.6867 0.7269 310.3866 -148.6666)">
		<stop  offset="0" style="stop-color:#F9ED32"/>
		<stop  offset="0.1185" style="stop-color:#EDAA3A"/>
		<stop  offset="0.2179" style="stop-color:#E4793F"/>
		<stop  offset="0.2934" style="stop-color:#DF5B43"/>
		<stop  offset="0.3359" style="stop-color:#DD5044"/>
		<stop  offset="0.3781" style="stop-color:#D94B53"/>
		<stop  offset="0.4461" style="stop-color:#D54666"/>
		<stop  offset="0.5176" style="stop-color:#D34270"/>
		<stop  offset="0.5974" style="stop-color:#D24174"/>
		<stop  offset="0.6746" style="stop-color:#D63878"/>
		<stop  offset="0.8282" style="stop-color:#DC2E7C"/>
		<stop  offset="1" style="stop-color:#DE2A7E"/>
	</linearGradient>
	<path class="st8" d="M446.6,236.5c-14.4-5.6-24.5-12.3-40.5-13c-17.3-0.8-33.1-3.9-48.9-7.9c-8.5-2.2-17.9-4.2-27.6-1.5
		c-7.4,2.1-10.9,9.3-15.7,15.3c-9.3,11.4-25.2,8.4-37,15.6c-11.9,7.1-22.8,21.1-25.9,35.9c-3.1,14.4,1,29.9,7.9,43.3
		c11,21.5,27.9,40.1,48.4,52.9c9.4,5.9,20.3,10,31.4,9.9c5.7-0.1,11.1-2.1,16-5c8.9-5.3,17.2-11.9,23.6-20.1
		c3.5-4.5,5.5-10.2,9.4-13.4c4.1-3.4,9.9-1.8,14.6-0.1c19.6,7.1,36.7,21.4,56.3,30.9c22.9,11.2,48.8,19.4,75.2,19.8
		c18.7,0.3,39.3-4.3,50.9-18.4c9.1-11,10.6-27,4-39.3c-6.4-11.9-19.8-19-33.5-20.7c-7.7-0.9-16.2,0.4-22.8-0.6c-3.8-0.6-7-2-9.7-4.7
		c-7.2-7.3-11.2-17.4-15.7-26.8c-6.3-13.1-12.4-27.7-24.8-36.6C471.6,244.3,458.5,241.2,446.6,236.5z"/>
	
		<linearGradient id="SVGID_8_" gradientUnits="userSpaceOnUse" x1="241.9608" y1="275.0781" x2="564.6189" y2="275.0781" gradientTransform="matrix(0.7269 0.6867 -0.6867 0.7269 310.3866 -148.6666)">
		<stop  offset="0" style="stop-color:#F9ED32"/>
		<stop  offset="0.1152" style="stop-color:#ECAD3A"/>
		<stop  offset="0.2162" style="stop-color:#E27C41"/>
		<stop  offset="0.2927" style="stop-color:#DC5E45"/>
		<stop  offset="0.3359" style="stop-color:#DA5346"/>
		<stop  offset="0.3801" style="stop-color:#D64E56"/>
		<stop  offset="0.4475" style="stop-color:#D14869"/>
		<stop  offset="0.5183" style="stop-color:#CE4473"/>
		<stop  offset="0.5974" style="stop-color:#CD4377"/>
		<stop  offset="0.6868" style="stop-color:#D3387A"/>
		<stop  offset="0.8346" style="stop-color:#D92E7D"/>
		<stop  offset="1" style="stop-color:#DB2A7E"/>
	</linearGradient>
	<path class="st9" d="M446.6,234.5c-14.6-5.5-25-11.8-41.1-12.4c-17.6-0.7-33.7-4-49.7-7.4c-8.9-1.9-18.8-3.4-29-0.7
		c-7.6,2-11.3,9.1-16.3,15.2c-9.2,11.4-24.7,8.7-36.3,16.2c-11.8,7.6-23.2,21.6-26.7,36.6c-3.4,14.6,0.7,30.5,7.7,44.2
		c11.1,21.6,28.1,40.2,48.7,53c10.2,6.3,21.9,10.6,33.9,10.5c5.8-0.1,11.4-2.1,16.4-5.1c8.9-5.3,17.2-11.9,23.5-20.1
		c3.6-4.8,6.4-10.4,9.6-14.5c4.6-2.8,9.7-2.2,14.4-0.6c19.4,6.5,36.3,20.8,55.7,29.9c23.4,11,49.9,18.9,76.9,19.2
		c19.4,0.2,40.7-4.4,53-18.8c9.5-11.1,11.5-27.3,5-40c-6.3-12.2-19.8-19.7-33.7-21.5c-8.1-1.1-17,0.4-24-0.4
		c-3.9-0.4-7.3-1.5-10.1-4.3c-7.3-7-11.2-17.1-15.8-26.3c-6.6-13.1-13.1-27.5-25.6-36.6C472.2,242.7,458.9,239.1,446.6,234.5z"/>
	
		<linearGradient id="SVGID_9_" gradientUnits="userSpaceOnUse" x1="240.4503" y1="274.9591" x2="565.8699" y2="274.9591" gradientTransform="matrix(0.7269 0.6867 -0.6867 0.7269 310.3866 -148.6666)">
		<stop  offset="0" style="stop-color:#F9ED32"/>
		<stop  offset="0.1117" style="stop-color:#EBB03B"/>
		<stop  offset="0.2143" style="stop-color:#E07F43"/>
		<stop  offset="0.2921" style="stop-color:#DA6147"/>
		<stop  offset="0.3359" style="stop-color:#D75649"/>
		<stop  offset="0.3801" style="stop-color:#D25059"/>
		<stop  offset="0.4475" style="stop-color:#CD4A6C"/>
		<stop  offset="0.5183" style="stop-color:#CA4676"/>
		<stop  offset="0.5974" style="stop-color:#C9457A"/>
		<stop  offset="0.6975" style="stop-color:#D0387C"/>
		<stop  offset="0.8403" style="stop-color:#D72E7D"/>
		<stop  offset="1" style="stop-color:#D92A7E"/>
	</linearGradient>
	<path class="st10" d="M446.5,232.5c-14.8-5.3-25.4-11.3-41.7-11.8c-17.9-0.6-34.2-4.2-50.5-6.9c-9.4-1.6-19.7-2.7-30.4,0
		c-7.7,1.9-11.8,8.9-16.9,15.1c-9.2,11.4-24.3,9.1-35.5,16.8c-11.7,8-23.6,22.2-27.4,37.4c-3.7,14.8,0.3,31.1,7.5,45
		c11.1,21.7,28.3,40.2,49,53.1c10.9,6.8,23.5,11.3,36.4,11.1c6-0.1,11.8-2.1,16.9-5.1c8.9-5.4,17.2-11.9,23.3-20.2
		c3.8-5.1,6.6-11.1,9.9-15.6c4.5-2.9,9.5-2.5,14.2-1c19.1,5.9,35.9,20.2,55.2,28.9c23.9,10.8,51,18.4,78.5,18.7
		c20.1,0.2,42-4.5,55-19.2c9.9-11.2,12.4-27.7,6-40.8c-6.1-12.5-19.8-20.3-34-22.4c-8.5-1.2-17.8,0.3-25.2-0.1
		c-4-0.2-7.6-1.1-10.6-3.8c-7.4-6.7-11.2-16.8-15.9-25.8c-6.8-13.1-13.7-27.4-26.4-36.6C472.8,241,459.2,237.1,446.5,232.5z"/>
	
		<linearGradient id="SVGID_10_" gradientUnits="userSpaceOnUse" x1="238.9418" y1="274.8351" x2="567.1306" y2="274.8351" gradientTransform="matrix(0.7269 0.6867 -0.6867 0.7269 310.3866 -148.6666)">
		<stop  offset="0" style="stop-color:#F9ED32"/>
		<stop  offset="0.1094" style="stop-color:#EAB23C"/>
		<stop  offset="0.213" style="stop-color:#DE8144"/>
		<stop  offset="0.2916" style="stop-color:#D76349"/>
		<stop  offset="0.3359" style="stop-color:#D4584B"/>
		<stop  offset="0.3821" style="stop-color:#CE525C"/>
		<stop  offset="0.4489" style="stop-color:#C94D6F"/>
		<stop  offset="0.519" style="stop-color:#C54979"/>
		<stop  offset="0.5974" style="stop-color:#C4487D"/>
		<stop  offset="0.7072" style="stop-color:#CD397E"/>
		<stop  offset="0.8454" style="stop-color:#D42F7F"/>
		<stop  offset="1" style="stop-color:#D62B7F"/>
	</linearGradient>
	<path class="st11" d="M446.5,230.5c-15-5.2-25.8-10.8-42.3-11.2c-18.2-0.5-34.8-4.2-51.3-6.5c-9.9-1.3-20.6-1.9-31.8,0.8
		c-7.9,1.9-12.3,8.7-17.4,15.1c-9.2,11.5-23.9,9.4-34.8,17.4c-11.6,8.4-24,22.7-28.2,38.1c-4,15,0,31.6,7.3,45.8
		c11.2,21.8,28.5,40.3,49.3,53.2c11.7,7.2,25.2,11.9,38.9,11.7c6.1-0.1,12.1-2.1,17.3-5.2c8.9-5.4,17.1-12,23.2-20.3
		c4-5.4,6.8-11.8,10.1-16.7c4.4-3,9.3-2.9,14-1.5c18.9,5.4,35.4,19.6,54.6,27.9c24.5,10.7,52.2,17.9,80.2,18.1
		c20.8,0.2,43.4-4.6,57.1-19.6c10.3-11.3,13.3-28,7-41.6c-6-12.8-19.8-21-34.2-23.2c-8.8-1.4-18.6,0.3-26.3,0.1
		c-4.1-0.1-7.9-0.6-11.1-3.4c-7.5-6.4-11.2-16.5-16-25.3c-7.1-13-14.4-27.2-27.2-36.5C473.4,239.4,459.6,235,446.5,230.5z"/>
	
		<linearGradient id="SVGID_11_" gradientUnits="userSpaceOnUse" x1="237.4357" y1="274.7062" x2="568.4007" y2="274.7062" gradientTransform="matrix(0.7269 0.6867 -0.6867 0.7269 310.3866 -148.6666)">
		<stop  offset="0" style="stop-color:#F9ED32"/>
		<stop  offset="0.1058" style="stop-color:#EAB53C"/>
		<stop  offset="0.2111" style="stop-color:#DC8445"/>
		<stop  offset="0.2909" style="stop-color:#D4664B"/>
		<stop  offset="0.3359" style="stop-color:#D15B4D"/>
		<stop  offset="0.3821" style="stop-color:#CB555E"/>
		<stop  offset="0.4489" style="stop-color:#C44F71"/>
		<stop  offset="0.519" style="stop-color:#C04B7B"/>
		<stop  offset="0.5974" style="stop-color:#BF4A7F"/>
		<stop  offset="0.716" style="stop-color:#CA397F"/>
		<stop  offset="0.85" style="stop-color:#D12F7F"/>
		<stop  offset="1" style="stop-color:#D32B7F"/>
	</linearGradient>
	<path class="st12" d="M446.4,228.5c-15.2-5-26.3-10.3-42.8-10.6c-18.5-0.4-35.4-4.3-52.1-6c-10.4-1-21.4-1.2-33.2,1.6
		c-8.1,1.9-12.8,8.4-18,15c-9.1,11.5-23.4,9.8-34,18c-11.6,8.9-24.5,23.2-28.9,38.9c-4.3,15.2-0.4,32.2,7.1,46.7
		c11.2,21.8,28.7,40.4,49.6,53.3c12.4,7.7,26.8,12.5,41.4,12.3c6.3-0.1,12.4-2,17.8-5.3c8.9-5.4,17-12,23.1-20.4
		c4.2-5.8,7.1-12.5,10.3-17.8c4.3-3.1,9.2-3.2,13.9-2c18.6,4.8,35,18.9,54,26.9c25,10.5,53.3,17.4,81.8,17.6
		c21.5,0.1,44.8-4.7,59.1-20c10.7-11.4,14.2-28.4,8-42.4c-5.8-13.2-19.8-21.7-34.5-24.1c-9.2-1.5-19.4,0.2-27.5,0.4
		c-4.3,0.1-8.2-0.2-11.5-2.9c-7.5-6.2-11.2-16.2-16.1-24.8c-7.4-13-15.1-27.1-28.1-36.5C474,237.7,459.9,233,446.4,228.5z"/>
	
		<linearGradient id="SVGID_12_" gradientUnits="userSpaceOnUse" x1="235.9323" y1="274.5729" x2="569.6797" y2="274.5729" gradientTransform="matrix(0.7269 0.6867 -0.6867 0.7269 310.3866 -148.6666)">
		<stop  offset="0" style="stop-color:#F9ED32"/>
		<stop  offset="0.1041" style="stop-color:#E9B73D"/>
		<stop  offset="0.2097" style="stop-color:#DA8647"/>
		<stop  offset="0.2904" style="stop-color:#D1684E"/>
		<stop  offset="0.3359" style="stop-color:#CE5D50"/>
		<stop  offset="0.3821" style="stop-color:#C75761"/>
		<stop  offset="0.4489" style="stop-color:#C05274"/>
		<stop  offset="0.519" style="stop-color:#BC4E7E"/>
		<stop  offset="0.5974" style="stop-color:#BB4D82"/>
		<stop  offset="0.605" style="stop-color:#BC4C82"/>
		<stop  offset="0.7275" style="stop-color:#C83981"/>
		<stop  offset="0.8562" style="stop-color:#CF2F80"/>
		<stop  offset="1" style="stop-color:#D12B80"/>
	</linearGradient>
	<path class="st13" d="M446.4,226.5c-15.4-4.9-26.7-9.7-43.4-10c-18.8-0.3-35.9-4.3-53-5.5c-10.9-0.7-22.3-0.4-34.6,2.3
		c-8.2,1.8-13.3,8.2-18.6,14.9c-9.1,11.5-23,10.2-33.3,18.6c-11.5,9.3-24.9,23.7-29.7,39.7c-4.6,15.4-0.7,32.8,6.9,47.5
		c11.3,21.9,28.9,40.5,49.9,53.4c13.2,8.1,28.5,13.1,43.9,12.9c6.4-0.1,12.7-2,18.2-5.4c8.8-5.4,17-12.1,23-20.5
		c4.3-6.1,7.3-13.2,10.6-18.9c4.2-3.2,9-3.5,13.7-2.5c18.4,4.3,34.6,18.3,53.5,25.9c25.6,10.3,54.4,17.2,83.4,17
		c22.2-0.1,46.2-4.8,61.2-20.4c11.1-11.5,15.1-28.7,9-43.1c-5.7-13.5-19.9-22.3-34.7-24.9c-9.6-1.7-20.2,0.1-28.6,0.6
		c-4.4,0.2-8-0.5-12-2.5c-6.4-7.2-11.3-15.9-16.2-24.4c-7.6-13-15.7-26.9-28.9-36.5C474.6,236.1,460.3,230.9,446.4,226.5z"/>
	
		<linearGradient id="SVGID_13_" gradientUnits="userSpaceOnUse" x1="234.432" y1="274.4355" x2="570.9664" y2="274.4355" gradientTransform="matrix(0.7269 0.6867 -0.6867 0.7269 310.3866 -148.6666)">
		<stop  offset="0" style="stop-color:#F9ED32"/>
		<stop  offset="0.1003" style="stop-color:#E8BA3E"/>
		<stop  offset="0.2076" style="stop-color:#D88949"/>
		<stop  offset="0.2896" style="stop-color:#CF6B4F"/>
		<stop  offset="0.3359" style="stop-color:#CB6052"/>
		<stop  offset="0.3841" style="stop-color:#C35A64"/>
		<stop  offset="0.4502" style="stop-color:#BC5477"/>
		<stop  offset="0.5197" style="stop-color:#B75081"/>
		<stop  offset="0.5974" style="stop-color:#B64F85"/>
		<stop  offset="0.6151" style="stop-color:#B84C85"/>
		<stop  offset="0.7345" style="stop-color:#C43982"/>
		<stop  offset="0.8599" style="stop-color:#CC2F80"/>
		<stop  offset="1" style="stop-color:#CE2B80"/>
	</linearGradient>
	<path class="st14" d="M446.3,224.5c-15.6-4.8-27.1-9.2-44-9.4c-19.1-0.2-36.5-4.4-53.8-5c-11.4-0.4-23.2,0.4-36,3.1
		c-8.4,1.8-13.7,8-19.1,14.8c-9.1,11.5-22.5,10.6-32.6,19.2c-11.4,9.8-25.3,24.2-30.4,40.4c-4.9,15.6-1.1,33.4,6.7,48.3
		c11.3,22,29.1,40.6,50.2,53.5c13.9,8.5,30.1,13.7,46.5,13.6c6.6-0.1,13.1-2,18.7-5.4c8.8-5.4,16.9-12.1,22.9-20.6
		c4.5-6.4,7.5-13.9,10.8-20c4.2-3.3,8.8-3.9,13.5-2.9c18.1,3.8,34.2,17.7,52.9,25c26.1,10.2,55.5,16.7,85.1,16.5
		c22.9-0.2,47.6-4.9,63.2-20.8c11.4-11.6,16-29.1,10.1-43.9c-5.6-13.8-19.9-23-35-25.8c-10-1.8-21,0-29.8,0.8
		c-4.5,0.4-8.3-0.1-12.4-2.1c-6.4-7-11.3-15.6-16.3-23.9c-7.9-13-16.4-26.8-29.7-36.4C475.2,234.5,460.6,228.9,446.3,224.5z"/>
	
		<linearGradient id="SVGID_14_" gradientUnits="userSpaceOnUse" x1="232.9348" y1="274.2943" x2="572.2606" y2="274.2943" gradientTransform="matrix(0.7269 0.6867 -0.6867 0.7269 310.3866 -148.6666)">
		<stop  offset="0" style="stop-color:#F9ED32"/>
		<stop  offset="9.760689e-02" style="stop-color:#E8BC3E"/>
		<stop  offset="0.2062" style="stop-color:#D78B4A"/>
		<stop  offset="0.2891" style="stop-color:#CC6D51"/>
		<stop  offset="0.3359" style="stop-color:#C86254"/>
		<stop  offset="0.3841" style="stop-color:#C05C66"/>
		<stop  offset="0.4502" style="stop-color:#B85779"/>
		<stop  offset="0.5197" style="stop-color:#B35383"/>
		<stop  offset="0.5974" style="stop-color:#B15287"/>
		<stop  offset="0.6289" style="stop-color:#B54C86"/>
		<stop  offset="0.744" style="stop-color:#C13983"/>
		<stop  offset="0.8649" style="stop-color:#C92F82"/>
		<stop  offset="1" style="stop-color:#CB2B81"/>
	</linearGradient>
	<path class="st15" d="M446.3,222.5c-15.7-4.7-27.6-8.7-44.6-8.8c-19.4-0.1-37.1-4.4-54.6-4.5c-11.9-0.1-24,1.1-37.4,3.8
		c-8.5,1.7-14.2,7.8-19.7,14.8c-9.1,11.5-22.1,11-31.8,19.8c-11.4,10.3-25.7,24.7-31.2,41.2c-5.2,15.7-1.4,33.9,6.5,49.2
		c11.4,22.1,29.2,40.6,50.4,53.6c14.7,9,31.7,14.4,49,14.2c6.7-0.1,13.4-2,19.1-5.5c8.8-5.4,16.9-12.2,22.7-20.6
		c4.7-6.7,7.8-14.6,11-21.1c4.1-3.4,8.6-4.2,13.3-3.4c17.8,3.2,33.8,17,52.3,24c26.7,10,56.7,16.3,86.7,15.9
		c23.5-0.3,48.9-5.1,65.3-21.2c11.8-11.7,16.9-29.5,11.1-44.7c-5.4-14.1-19.9-23.7-35.2-26.6c-10.4-2-21.8,0-31,1.1
		c-4.6,0.6-8.6,0.3-12.9-1.6c-6.4-6.8-11.3-15.3-16.5-23.4c-8.2-12.9-17.1-26.6-30.5-36.4C475.8,232.8,461,226.8,446.3,222.5z"/>
	
		<linearGradient id="SVGID_15_" gradientUnits="userSpaceOnUse" x1="231.4409" y1="274.1495" x2="573.5618" y2="274.1495" gradientTransform="matrix(0.7269 0.6867 -0.6867 0.7269 310.3866 -148.6666)">
		<stop  offset="0" style="stop-color:#F9ED32"/>
		<stop  offset="9.352512e-02" style="stop-color:#E7BF3F"/>
		<stop  offset="0.2039" style="stop-color:#D58E4C"/>
		<stop  offset="0.2883" style="stop-color:#C97054"/>
		<stop  offset="0.3359" style="stop-color:#C56557"/>
		<stop  offset="0.3841" style="stop-color:#BC5F69"/>
		<stop  offset="0.4502" style="stop-color:#B4597C"/>
		<stop  offset="0.5197" style="stop-color:#AF5586"/>
		<stop  offset="0.5974" style="stop-color:#AD548A"/>
		<stop  offset="0.6372" style="stop-color:#B34C88"/>
		<stop  offset="0.7497" style="stop-color:#BF3984"/>
		<stop  offset="0.8679" style="stop-color:#C72F82"/>
		<stop  offset="1" style="stop-color:#C92B81"/>
	</linearGradient>
	<path class="st16" d="M446.2,220.5c-15.9-4.5-28-8.2-45.2-8.2c-19.7,0-37.7-4.4-55.4-4c-12.4,0.3-24.9,1.9-38.9,4.6
		c-8.7,1.7-14.7,7.6-20.2,14.7c-9,11.5-21.6,11.4-31.1,20.3c-11.3,10.8-26.1,25.3-31.9,42c-5.5,15.9-1.8,34.5,6.3,50
		c11.5,22.1,29.4,40.7,50.7,53.7c15.5,9.4,33.4,15,51.5,14.8c6.9-0.1,13.7-2,19.6-5.6c8.8-5.4,16.8-12.3,22.6-20.7
		c4.9-7.1,8-15.3,11.3-22.2c4-3.5,8.4-4.6,13.1-3.9c17.5,2.7,33.4,16.3,51.8,23c27.2,9.8,57.8,15.8,88.4,15.4
		c24.2-0.3,50.3-5.2,67.3-21.6c12.2-11.8,17.8-29.8,12.1-45.4c-5.3-14.4-19.9-24.3-35.5-27.5c-10.8-2.2-22.6-0.1-32.1,1.3
		c-4.8,0.7-8.9,0.7-13.4-1.2c-6.4-6.6-11.4-14.9-16.6-22.9c-8.5-12.9-17.7-26.5-31.3-36.3C476.4,231.2,461.3,224.8,446.2,220.5z"/>
	
		<linearGradient id="SVGID_16_" gradientUnits="userSpaceOnUse" x1="229.9503" y1="274.0013" x2="574.8701" y2="274.0013" gradientTransform="matrix(0.7269 0.6867 -0.6867 0.7269 310.3866 -148.6666)">
		<stop  offset="0" style="stop-color:#F9ED32"/>
		<stop  offset="8.923193e-02" style="stop-color:#E7C23F"/>
		<stop  offset="0.2016" style="stop-color:#D3914D"/>
		<stop  offset="0.2875" style="stop-color:#C77356"/>
		<stop  offset="0.3359" style="stop-color:#C26859"/>
		<stop  offset="0.3859" style="stop-color:#B8616C"/>
		<stop  offset="0.4515" style="stop-color:#AF5B7F"/>
		<stop  offset="0.5204" style="stop-color:#AA5789"/>
		<stop  offset="0.5974" style="stop-color:#A8568D"/>
		<stop  offset="0.645" style="stop-color:#AF4C8A"/>
		<stop  offset="0.7551" style="stop-color:#BC3985"/>
		<stop  offset="0.8708" style="stop-color:#C42F82"/>
		<stop  offset="1" style="stop-color:#C62B81"/>
	</linearGradient>
	<path class="st17" d="M446.2,218.5c-16.1-4.4-28.5-7.7-45.8-7.6c-20,0.1-38.2-4.3-56.2-3.5c-12.9,0.6-25.8,2.7-40.3,5.4
		c-8.9,1.6-15.2,7.4-20.8,14.6c-9,11.5-21.2,11.8-30.3,20.9c-11.2,11.3-26.6,25.8-32.6,42.7c-5.8,16.1-2.1,35.1,6.1,50.8
		c11.5,22.2,29.6,40.8,51,53.8c16.2,9.8,35,15.6,54,15.4c7-0.1,14-2,20-5.7c8.8-5.5,16.7-12.3,22.5-20.8c5-7.4,8.2-16,11.5-23.4
		c3.9-3.6,8.6-6.2,12.9-4.3c15.9,6.9,33,15.7,51.2,22c27.8,9.6,58.9,15,90,14.8c24.9-0.1,51.7-5.3,69.4-22
		c12.6-11.9,18.7-30.2,13.1-46.2c-5.1-14.7-19.9-25-35.7-28.3c-11.1-2.3-23.4-0.2-33.3,1.6c-4.9,0.9-9.1,1-13.8-0.7
		c-6.5-6.4-11.4-14.6-16.7-22.4c-8.8-12.9-18.4-26.3-32.1-36.3C477,229.5,461.7,222.7,446.2,218.5z"/>
	
		<linearGradient id="SVGID_17_" gradientUnits="userSpaceOnUse" x1="228.4629" y1="273.8499" x2="576.1852" y2="273.8499" gradientTransform="matrix(0.7269 0.6867 -0.6867 0.7269 310.3866 -148.6666)">
		<stop  offset="0" style="stop-color:#F9ED32"/>
		<stop  offset="8.626315e-02" style="stop-color:#E7C43F"/>
		<stop  offset="0.2" style="stop-color:#D1934E"/>
		<stop  offset="0.2869" style="stop-color:#C47557"/>
		<stop  offset="0.3359" style="stop-color:#BF6A5B"/>
		<stop  offset="0.3877" style="stop-color:#B4636F"/>
		<stop  offset="0.4528" style="stop-color:#AB5E82"/>
		<stop  offset="0.5211" style="stop-color:#A55A8C"/>
		<stop  offset="0.5974" style="stop-color:#A35990"/>
		<stop  offset="0.6558" style="stop-color:#AC4C8C"/>
		<stop  offset="0.7625" style="stop-color:#B93986"/>
		<stop  offset="0.8747" style="stop-color:#C12F83"/>
		<stop  offset="1" style="stop-color:#C32B82"/>
	</linearGradient>
	<path class="st18" d="M446.1,216.5c-16.3-4.3-28.9-7.2-46.3-7c-20.3,0.1-38.8-4.3-57-3c-13.3,1-26.6,3.5-41.7,6.1
		c-9,1.6-15.7,7.2-21.4,14.5c-9,11.6-20.7,12.2-29.6,21.5c-11.2,11.8-27,26.3-33.4,43.5c-6.1,16.3-2.5,35.7,5.9,51.6
		c11.6,22.3,29.8,40.9,51.3,53.9c17,10.2,36.7,16.2,56.5,16c7.2-0.1,14.4-1.9,20.5-5.7c8.8-5.5,16.7-12.4,22.4-20.9
		c5.2-7.7,8.5-16.7,11.7-24.5c3.8-3.7,8.4-6.6,12.7-4.8c15.6,6.6,32.6,15,50.7,21c28.4,9.4,60,14.5,91.6,14.3
		c25.6-0.2,53-5.4,71.4-22.4c13-12,19.6-30.5,14.1-47c-5-15.1-19.9-25.7-35.9-29.2c-11.5-2.5-24.2-0.3-34.4,1.8
		c-5,1-9.4,1.4-14.3-0.3c-6.5-6.2-11.4-14.3-16.8-21.9c-9.1-12.9-19.1-26.2-33-36.3C477.6,227.9,462.1,220.7,446.1,216.5z"/>
	
		<linearGradient id="SVGID_18_" gradientUnits="userSpaceOnUse" x1="226.93" y1="273.6955" x2="577.507" y2="273.6955" gradientTransform="matrix(0.7269 0.6867 -0.6867 0.7269 310.3866 -148.6666)">
		<stop  offset="0" style="stop-color:#F9ED32"/>
		<stop  offset="8.169809e-02" style="stop-color:#E7C73F"/>
		<stop  offset="0.1975" style="stop-color:#D09650"/>
		<stop  offset="0.286" style="stop-color:#C1785A"/>
		<stop  offset="0.3359" style="stop-color:#BC6D5E"/>
		<stop  offset="0.3859" style="stop-color:#B16671"/>
		<stop  offset="0.4515" style="stop-color:#A76084"/>
		<stop  offset="0.5204" style="stop-color:#A15C8E"/>
		<stop  offset="0.5974" style="stop-color:#9F5B92"/>
		<stop  offset="0.6624" style="stop-color:#AA4C8D"/>
		<stop  offset="0.7671" style="stop-color:#B73987"/>
		<stop  offset="0.8771" style="stop-color:#BE2F83"/>
		<stop  offset="1" style="stop-color:#C12B82"/>
	</linearGradient>
	<path class="st19" d="M446.1,214.5c-16.5-4.2-29.3-6.6-46.9-6.4c-20.6,0.2-39.4-4.3-57.8-2.5c-13.8,1.3-27.5,4.2-43.1,6.9
		c-9.2,1.6-16.1,7-21.9,14.4c-9,11.6-20.3,12.7-28.8,22.1c-11.1,12.3-27.4,26.8-34.1,44.2c-6.4,16.5-2.8,36.2,5.7,52.5
		c11.6,22.4,30,40.9,51.6,53.9c17.7,10.7,38.3,16.8,59,16.6c7.3-0.1,14.7-1.9,20.9-5.8c8.7-5.5,16.6-12.4,22.2-21
		c5.4-8.1,8.7-17.4,12-25.6c3.8-3.8,8.2-7.1,12.6-5.3c15.3,6.3,32.2,14.3,50.1,20c29,9.2,61.1,14,93.3,13.7
		c26.3-0.2,54.4-5.5,73.5-22.8c13.4-12.1,20.5-30.9,15.1-47.8c-4.9-15.4-19.9-26.4-36.2-30c-11.9-2.7-25-0.4-35.6,2
		c-5.1,1.2-9.7,1.8-14.8,0.1c-6.5-6-11.5-14-16.9-21.4c-9.4-12.8-19.7-26-33.8-36.2C478.3,226.2,462.4,218.6,446.1,214.5z"/>
	
		<linearGradient id="SVGID_19_" gradientUnits="userSpaceOnUse" x1="225.2252" y1="273.5383" x2="578.8354" y2="273.5383" gradientTransform="matrix(0.7269 0.6867 -0.6867 0.7269 310.3866 -148.6666)">
		<stop  offset="0" style="stop-color:#F9ED32"/>
		<stop  offset="7.853997e-02" style="stop-color:#E7C93F"/>
		<stop  offset="0.1958" style="stop-color:#CE9851"/>
		<stop  offset="0.2854" style="stop-color:#BF7A5C"/>
		<stop  offset="0.3359" style="stop-color:#B96F60"/>
		<stop  offset="0.3877" style="stop-color:#AD6874"/>
		<stop  offset="0.4528" style="stop-color:#A26387"/>
		<stop  offset="0.5211" style="stop-color:#9C5F91"/>
		<stop  offset="0.5974" style="stop-color:#9A5E95"/>
		<stop  offset="0.6716" style="stop-color:#A74C8F"/>
		<stop  offset="0.7734" style="stop-color:#B43988"/>
		<stop  offset="0.8804" style="stop-color:#BB2F84"/>
		<stop  offset="1" style="stop-color:#BE2B83"/>
	</linearGradient>
	<path class="st20" d="M446.1,212.5c-16.7-4-29.8-6.1-47.5-5.8c-21,0.3-39.9-4.2-58.6-2c-14.3,1.7-28.4,5-44.5,7.6
		c-9.4,1.5-16.6,6.8-22.5,14.4c-8.9,11.6-19.8,13.1-28.1,22.7c-11,12.8-27.8,27.3-34.9,45c-6.7,16.7-3.1,36.8,5.5,53.3
		c11.7,22.5,30.2,41,51.9,54c18.5,11.1,39.9,17.4,61.5,17.3c7.5-0.1,15-1.9,21.4-5.9c8.7-5.5,16.5-12.5,22.1-21
		c5.5-8.4,8.9-18.1,12.2-26.7c3.7-3.9,8-7.5,12.4-5.8c15.1,6,31.8,13.6,49.5,19c29.6,9,62.3,13.5,94.9,13.2
		c27-0.3,55.8-5.7,75.5-23.2c13.8-12.2,21.4-31.2,16.1-48.5c-4.7-15.7-19.9-27.1-36.4-30.9c-12.3-2.8-25.8-0.5-36.8,2.3
		c-5.3,1.3-10,2.1-15.2,0.6c-6.5-5.8-11.6-13.7-17-21c-9.7-12.8-20.4-25.9-34.6-36.2C478.9,224.6,462.8,216.5,446.1,212.5z"/>
	
		<linearGradient id="SVGID_20_" gradientUnits="userSpaceOnUse" x1="223.497" y1="273.3784" x2="580.1702" y2="273.3784" gradientTransform="matrix(0.7269 0.6867 -0.6867 0.7269 310.3866 -148.6666)">
		<stop  offset="0" style="stop-color:#F9ED32"/>
		<stop  offset="7.365479e-02" style="stop-color:#E7CC3F"/>
		<stop  offset="0.1932" style="stop-color:#CD9B52"/>
		<stop  offset="0.2844" style="stop-color:#BC7D5E"/>
		<stop  offset="0.3359" style="stop-color:#B67262"/>
		<stop  offset="0.3895" style="stop-color:#A96B77"/>
		<stop  offset="0.454" style="stop-color:#9E658A"/>
		<stop  offset="0.5217" style="stop-color:#976194"/>
		<stop  offset="0.5974" style="stop-color:#956098"/>
		<stop  offset="0.6772" style="stop-color:#A44C90"/>
		<stop  offset="0.7773" style="stop-color:#B13989"/>
		<stop  offset="0.8825" style="stop-color:#B82F84"/>
		<stop  offset="1" style="stop-color:#BB2B83"/>
	</linearGradient>
	<path class="st21" d="M446,210.5c-16.9-3.9-30.2-5.6-48.1-5.2c-21.3,0.4-40.5-4.2-59.4-1.5c-14.8,2.1-29.2,5.8-45.9,8.4
		c-9.5,1.5-17.1,6.5-23,14.3c-8.9,11.6-19.3,13.5-27.3,23.3c-10.9,13.3-28.2,27.9-35.6,45.8c-7,16.9-3.5,37.4,5.3,54.1
		c11.7,22.5,30.4,41.1,52.2,54.1c19.2,11.5,41.6,18,64,17.9c7.6-0.1,15.3-1.9,21.8-6c8.7-5.5,16.4-12.6,22-21.1
		c5.7-8.7,9.2-18.8,12.4-27.8c3.6-4,7.8-7.9,12.2-6.2c14.8,5.7,31.4,12.9,49,18c30.1,8.8,63.4,13,96.6,12.6
		c27.7-0.3,57.1-5.8,77.5-23.6c14.2-12.4,22.2-31.6,17.1-49.3c-4.6-16-19.9-27.7-36.7-31.7c-12.7-3-26.6-0.6-37.9,2.5
		c-5.4,1.5-10.2,2.5-15.7,1c-6.5-5.6-11.6-13.4-17.2-20.5c-10-12.8-21.1-25.7-35.4-36.2C479.5,222.9,463.1,214.5,446,210.5z"/>
	
		<linearGradient id="SVGID_21_" gradientUnits="userSpaceOnUse" x1="221.7419" y1="273.2161" x2="581.5112" y2="273.2161" gradientTransform="matrix(0.7269 0.6867 -0.6867 0.7269 310.3866 -148.6666)">
		<stop  offset="0" style="stop-color:#F9ED32"/>
		<stop  offset="7.024795e-02" style="stop-color:#E7CE3F"/>
		<stop  offset="0.1913" style="stop-color:#CB9D54"/>
		<stop  offset="0.2838" style="stop-color:#BA7F60"/>
		<stop  offset="0.3359" style="stop-color:#B37465"/>
		<stop  offset="0.3895" style="stop-color:#A66D7A"/>
		<stop  offset="0.454" style="stop-color:#9A688D"/>
		<stop  offset="0.5217" style="stop-color:#936497"/>
		<stop  offset="0.5974" style="stop-color:#91639B"/>
		<stop  offset="0.6852" style="stop-color:#A24C91"/>
		<stop  offset="0.7828" style="stop-color:#AF398A"/>
		<stop  offset="0.8854" style="stop-color:#B62F85"/>
		<stop  offset="1" style="stop-color:#B92B84"/>
	</linearGradient>
	<path class="st22" d="M446,208.5c-17-3.8-30.6-5.1-48.7-4.6c-21.6,0.5-41.1-4.1-60.2-1c-15.3,2.4-30.1,6.6-47.3,9.2
		c-9.7,1.5-17.6,6.3-23.6,14.2c-8.9,11.6-18.8,14-26.6,23.9c-10.8,13.9-28.6,28.4-36.4,46.5c-7.3,17.1-3.8,38,5.1,55
		c11.8,22.6,30.6,41.2,52.5,54.2c20,12,43.2,18.6,66.5,18.5c7.8-0.1,15.7-1.9,22.2-6c8.7-5.5,16.4-12.6,21.9-21.2
		c5.8-9.1,9.4-19.5,12.7-28.9c3.5-4.1,7.3-5.8,12-6.7c15.3,2.6,31.1,12.2,48.4,17c30.7,8.6,64.5,12.5,98.2,12.1
		c28.4-0.4,58.5-5.9,79.6-24c14.6-12.5,23.1-31.9,18.2-50.1c-4.5-16.3-19.9-28.4-36.9-32.6c-13-3.2-27.5-0.7-39.1,2.8
		c-5.5,1.6-10.5,2.9-16.2,1.5c-6.6-5.4-11.7-13-17.3-20c-10.3-12.8-21.8-25.6-36.2-36.1C480.1,221.3,463.5,212.4,446,208.5z"/>
	
		<linearGradient id="SVGID_22_" gradientUnits="userSpaceOnUse" x1="219.9544" y1="273.0515" x2="582.8584" y2="273.0515" gradientTransform="matrix(0.7269 0.6867 -0.6867 0.7269 310.3866 -148.6666)">
		<stop  offset="0" style="stop-color:#F9ED32"/>
		<stop  offset="6.498171e-02" style="stop-color:#E8D13F"/>
		<stop  offset="0.1885" style="stop-color:#CAA054"/>
		<stop  offset="0.2827" style="stop-color:#B78262"/>
		<stop  offset="0.3359" style="stop-color:#B07767"/>
		<stop  offset="0.3895" style="stop-color:#A2707C"/>
		<stop  offset="0.454" style="stop-color:#966A8F"/>
		<stop  offset="0.5217" style="stop-color:#8E6699"/>
		<stop  offset="0.5974" style="stop-color:#8C659D"/>
		<stop  offset="0.6902" style="stop-color:#9E4C92"/>
		<stop  offset="0.7863" style="stop-color:#AC398A"/>
		<stop  offset="0.8872" style="stop-color:#B32F86"/>
		<stop  offset="1" style="stop-color:#B62B84"/>
	</linearGradient>
	<path class="st23" d="M445.9,206.5c-17.2-3.7-31.1-4.6-49.3-4c-21.9,0.6-41.6-4-61-0.5c-15.8,2.8-31,7.4-48.7,9.9
		c-9.9,1.4-18,6.1-24.2,14.1c-8.9,11.6-18.3,14.4-25.8,24.5c-10.7,14.4-29,28.9-37.1,47.3c-7.6,17.3-4.2,38.5,4.9,55.8
		c11.8,22.7,30.8,41.2,52.7,54.3c20.8,12.4,44.9,19.3,69.1,19.1c8-0.1,16-1.8,22.7-6.1c8.7-5.5,16.3-12.7,21.8-21.3
		c6-9.4,9.6-20.2,12.9-30c3.5-4.2,7.2-6.1,11.8-7.2c15,2.2,30.7,11.5,47.9,16c31.3,8.3,65.6,12,99.8,11.5c29.1-0.4,59.9-6,81.6-24.3
		c15-12.6,24-32.3,19.2-50.8c-4.3-16.6-19.9-29.1-37.2-33.4c-13.4-3.3-28.3-0.8-40.2,3c-5.6,1.8-10.8,3.3-16.6,1.9
		c-6.6-5.3-11.7-12.7-17.4-19.5c-10.6-12.7-22.4-25.4-37-36.1C480.7,219.6,463.9,210.3,445.9,206.5z"/>
	
		<linearGradient id="SVGID_23_" gradientUnits="userSpaceOnUse" x1="218.1264" y1="272.8846" x2="584.2115" y2="272.8846" gradientTransform="matrix(0.7269 0.6867 -0.6867 0.7269 310.3866 -148.6666)">
		<stop  offset="0" style="stop-color:#F9ED32"/>
		<stop  offset="5.946618e-02" style="stop-color:#E8D43E"/>
		<stop  offset="0.1855" style="stop-color:#C8A355"/>
		<stop  offset="0.2816" style="stop-color:#B48564"/>
		<stop  offset="0.3359" style="stop-color:#AD7A69"/>
		<stop  offset="0.3912" style="stop-color:#9E727F"/>
		<stop  offset="0.4552" style="stop-color:#916C92"/>
		<stop  offset="0.5224" style="stop-color:#89689C"/>
		<stop  offset="0.5974" style="stop-color:#8767A0"/>
		<stop  offset="0.603" style="stop-color:#88659F"/>
		<stop  offset="0.6947" style="stop-color:#9B4C93"/>
		<stop  offset="0.7896" style="stop-color:#A8398B"/>
		<stop  offset="0.889" style="stop-color:#B02F86"/>
		<stop  offset="1" style="stop-color:#B32B84"/>
	</linearGradient>
	<path class="st24" d="M445.9,204.5c-17.4-3.6-31.5-4-49.8-3.4c-22.2,0.7-42.2-4-61.8-0.1c-16.2,3.2-31.8,8.1-50.1,10.7
		c-10,1.4-18.5,5.9-24.7,14.1c-8.8,11.6-17.8,14.9-25.1,25.1c-10.6,14.9-29.5,29.4-37.8,48.1c-7.9,17.5-4.5,39.1,4.7,56.6
		c11.9,22.8,31,41.3,53,54.4c21.5,12.8,46.5,19.9,71.6,19.7c8.1-0.1,16.3-1.8,23.1-6.2c8.7-5.5,16.2-12.8,21.6-21.4
		c6.2-9.7,9.9-20.9,13.1-31.1c3.4-4.3,7-6.4,11.6-7.6c14.8,1.8,30.3,10.7,47.3,15c31.9,8.1,66.8,11.5,101.5,11
		c29.7-0.5,61.2-6.2,83.7-24.7c15.3-12.7,24.9-32.6,20.2-51.6c-4.2-17-19.9-29.8-37.4-34.3c-13.8-3.5-29.1-0.9-41.4,3.2
		c-5.8,1.9-11.1,3.6-17.1,2.3c-6.6-5.1-11.8-12.4-17.5-19c-10.9-12.7-23.1-25.3-37.8-36C481.3,218,464.2,208.3,445.9,204.5z"/>
	
		<linearGradient id="SVGID_24_" gradientUnits="userSpaceOnUse" x1="216.2457" y1="272.7156" x2="585.5706" y2="272.7156" gradientTransform="matrix(0.7269 0.6867 -0.6867 0.7269 310.3866 -148.6666)">
		<stop  offset="0" style="stop-color:#F9ED32"/>
		<stop  offset="5.561673e-02" style="stop-color:#E9D63E"/>
		<stop  offset="0.1834" style="stop-color:#C7A557"/>
		<stop  offset="0.2809" style="stop-color:#B28766"/>
		<stop  offset="0.3359" style="stop-color:#AA7C6C"/>
		<stop  offset="0.3912" style="stop-color:#9A7582"/>
		<stop  offset="0.4552" style="stop-color:#8D6F95"/>
		<stop  offset="0.5224" style="stop-color:#866B9F"/>
		<stop  offset="0.5974" style="stop-color:#836AA3"/>
		<stop  offset="0.6117" style="stop-color:#8765A1"/>
		<stop  offset="0.7014" style="stop-color:#994C95"/>
		<stop  offset="0.7942" style="stop-color:#A6398C"/>
		<stop  offset="0.8914" style="stop-color:#AE2F87"/>
		<stop  offset="1" style="stop-color:#B12B85"/>
	</linearGradient>
	<path class="st25" d="M445.8,202.5c-17.6-3.5-31.9-3.5-50.4-2.8c-22.5,0.8-42.7-3.9-62.6,0.4c-16.7,3.6-32.7,8.9-51.5,11.4
		c-10.2,1.4-19,5.7-25.3,14c-8.8,11.6-17.3,15.4-24.3,25.7c-10.4,15.5-29.9,29.9-38.6,48.8c-8.2,17.7-4.9,39.7,4.5,57.5
		c11.9,22.8,31.2,41.4,53.3,54.5c22.3,13.2,48.2,20.5,74.1,20.4c8.3-0.1,16.6-1.8,23.6-6.3c8.6-5.5,16.1-12.8,21.5-21.4
		c6.3-10.1,8.4-22.3,13.4-32.2c2.5-4.9,6.8-6.7,11.4-8.1c14.5,1.4,29.9,10,46.7,14c32.5,7.8,67.9,11,103.1,10.4
		c30.4-0.6,62.6-6.3,85.7-25.1c15.7-12.8,25.8-33,21.2-52.4c-4.1-17.3-20-30.5-37.7-35.1c-14.2-3.7-29.9-1-42.6,3.5
		c-5.9,2.1-11.3,4-17.5,2.8c-6.6-4.9-11.9-12.1-17.6-18.5c-11.3-12.7-23.8-25.1-38.7-36C481.9,216.4,464.6,206.2,445.8,202.5z"/>
	
		<linearGradient id="SVGID_25_" gradientUnits="userSpaceOnUse" x1="214.0563" y1="272.5447" x2="586.9354" y2="272.5447" gradientTransform="matrix(0.7269 0.6867 -0.6867 0.7269 310.3866 -148.6666)">
		<stop  offset="0" style="stop-color:#F9ED32"/>
		<stop  offset="4.964890e-02" style="stop-color:#EAD93D"/>
		<stop  offset="0.1801" style="stop-color:#C6A857"/>
		<stop  offset="0.2797" style="stop-color:#AF8A68"/>
		<stop  offset="0.3359" style="stop-color:#A77F6E"/>
		<stop  offset="0.3912" style="stop-color:#967784"/>
		<stop  offset="0.4552" style="stop-color:#897197"/>
		<stop  offset="0.5224" style="stop-color:#816DA1"/>
		<stop  offset="0.5974" style="stop-color:#7E6CA5"/>
		<stop  offset="0.6172" style="stop-color:#8365A2"/>
		<stop  offset="0.7056" style="stop-color:#964C95"/>
		<stop  offset="0.7971" style="stop-color:#A3398C"/>
		<stop  offset="0.8929" style="stop-color:#AB2F87"/>
		<stop  offset="1" style="stop-color:#AE2B85"/>
	</linearGradient>
	<path class="st26" d="M445.8,200.5c-17.8-3.4-32.4-3-51-2.3c-22.8,0.9-43.3-3.8-63.4,0.9c-17.2,4-33.6,9.7-52.9,12.2
		c-10.4,1.3-19.5,5.5-25.9,13.9c-8.8,11.6-16.8,15.8-23.6,26.3c-10.3,16-30.3,30.5-39.3,49.6c-8.5,17.9-5.2,40.3,4.3,58.3
		c12,22.9,31.4,41.4,53.6,54.6c23.1,13.6,49.8,21.1,76.6,21c8.4-0.1,17-1.8,24-6.3c8.6-5.5,16-12.9,21.4-21.5
		c6.5-10.4,8.6-23,13.6-33.3c2.4-5,6.6-7,11.2-8.6c14.2,1,29.6,9.3,46.2,13.1c33.2,7.6,69,10.5,104.8,9.8c31.1-0.6,64-6.4,87.8-25.5
		c16.1-12.9,26.7-33.3,22.2-53.2c-4-17.6-20-31.2-37.9-36c-14.5-3.9-30.7-1.1-43.7,3.7c-6,2.2-11.6,4.4-18,3.2
		c-6.6-4.7-11.9-11.7-17.7-18c-11.6-12.6-24.4-25-39.5-36C482.5,214.7,465,204.1,445.8,200.5z"/>
	
		<linearGradient id="SVGID_26_" gradientUnits="userSpaceOnUse" x1="211.4293" y1="272.3719" x2="588.3057" y2="272.3719" gradientTransform="matrix(0.7269 0.6867 -0.6867 0.7269 310.3866 -148.6666)">
		<stop  offset="0" style="stop-color:#F9ED32"/>
		<stop  offset="4.543282e-02" style="stop-color:#EBDB3C"/>
		<stop  offset="0.1778" style="stop-color:#C5AA58"/>
		<stop  offset="0.2789" style="stop-color:#AD8C6A"/>
		<stop  offset="0.3359" style="stop-color:#A48170"/>
		<stop  offset="0.3929" style="stop-color:#927987"/>
		<stop  offset="0.4563" style="stop-color:#84749A"/>
		<stop  offset="0.523" style="stop-color:#7C70A4"/>
		<stop  offset="0.5974" style="stop-color:#796FA8"/>
		<stop  offset="0.6249" style="stop-color:#8065A3"/>
		<stop  offset="0.7115" style="stop-color:#934C96"/>
		<stop  offset="0.8012" style="stop-color:#A0398D"/>
		<stop  offset="0.8951" style="stop-color:#A82F88"/>
		<stop  offset="1" style="stop-color:#AB2B86"/>
	</linearGradient>
	<path class="st27" d="M445.7,198.5c-18-3.3-32.8-2.5-51.6-1.7c-23.1,1-43.8-3.7-64.2,1.4c-17.6,4.5-34.4,10.5-54.3,13
		c-10.5,1.3-20,5.3-26.4,13.8c-8.8,11.7-16.3,16.3-22.8,26.9c-10.1,16.6-30.7,31-40.1,50.3c-8.8,18.1-5.6,40.8,4.1,59.1
		c12,23,31.6,41.5,53.9,54.7c23.8,14.1,51.4,21.7,79.1,21.6c8.6-0.1,17.3-1.8,24.5-6.4c8.6-5.6,16-13,21.3-21.6
		c6.6-10.7,8.8-23.7,13.9-34.5c2.4-5.1,6.5-7.3,11.1-9c13.9,0.6,29.2,8.5,45.6,12.1c33.8,7.3,70.1,10.1,106.4,9.3
		c31.8-0.7,65.3-6.5,89.8-25.9c16.5-13.1,27.5-33.7,23.2-53.9c-3.8-17.9-20-31.9-38.2-36.8c-14.9-4-31.5-1.2-44.9,4
		c-6.2,2.4-11.9,4.7-18.5,3.7c-6.7-4.5-12-11.4-17.8-17.6c-11.9-12.6-25.1-24.8-40.3-35.9C483.1,213.1,465.3,202,445.7,198.5z"/>
	
		<linearGradient id="SVGID_27_" gradientUnits="userSpaceOnUse" x1="208.8016" y1="272.1974" x2="589.6814" y2="272.1974" gradientTransform="matrix(0.7269 0.6867 -0.6867 0.7269 310.3866 -148.6666)">
		<stop  offset="0" style="stop-color:#F9ED32"/>
		<stop  offset="3.895630e-02" style="stop-color:#ECDE3B"/>
		<stop  offset="0.1743" style="stop-color:#C4AD59"/>
		<stop  offset="0.2776" style="stop-color:#AB8F6C"/>
		<stop  offset="0.3359" style="stop-color:#A28473"/>
		<stop  offset="0.3929" style="stop-color:#8F7C8A"/>
		<stop  offset="0.4563" style="stop-color:#81769D"/>
		<stop  offset="0.523" style="stop-color:#7872A7"/>
		<stop  offset="0.5974" style="stop-color:#7571AB"/>
		<stop  offset="0.6275" style="stop-color:#7D66A5"/>
		<stop  offset="0.7135" style="stop-color:#904D98"/>
		<stop  offset="0.8025" style="stop-color:#9E3A8E"/>
		<stop  offset="0.8958" style="stop-color:#A63088"/>
		<stop  offset="1" style="stop-color:#A92C86"/>
	</linearGradient>
	<path class="st28" d="M445.7,196.5c-18.1-3.2-33.2-2-52.2-1.1c-23.4,1.1-44.4-3.6-65,1.9c-18.1,4.9-35.3,11.3-55.7,13.7
		c-10.7,1.3-20.5,5.1-27,13.8c-8.7,11.7-15.8,16.8-22.1,27.5c-10,17.1-31.1,31.5-40.8,51.1c-9,18.3-5.9,41.4,3.9,59.9
		c12.1,23.1,31.8,41.6,54.2,54.8c24.6,14.5,53.1,22.4,81.6,22.2c8.7-0.1,17.6-1.7,24.9-6.5c8.6-5.6,15.9-13,21.2-21.7
		c6.8-11.1,9.1-24.4,14.1-35.6c2.3-5.2,6.3-7.6,10.9-9.5c13.6,0.3,28.8,7.8,45.1,11.1c34.4,7,71.3,9.6,108,8.7
		c32.5-0.7,66.7-6.7,91.9-26.3c16.9-13.2,28.4-34,24.2-54.7c-3.7-18.2-20-32.6-38.4-37.7c-15.3-4.2-32.4-1.3-46,4.2
		c-6.3,2.5-12.2,5.1-18.9,4.1c-6.7-4.3-12.1-11.1-18-17.1c-12.3-12.5-25.8-24.7-41.1-35.9C483.7,211.4,465.7,200,445.7,196.5z"/>
	
		<linearGradient id="SVGID_28_" gradientUnits="userSpaceOnUse" x1="206.1733" y1="272.0212" x2="591.0624" y2="272.0212" gradientTransform="matrix(0.7269 0.6867 -0.6867 0.7269 310.3866 -148.6666)">
		<stop  offset="0" style="stop-color:#F9ED32"/>
		<stop  offset="3.442571e-02" style="stop-color:#EDE03B"/>
		<stop  offset="0.1719" style="stop-color:#C3AF5A"/>
		<stop  offset="0.2767" style="stop-color:#A9916E"/>
		<stop  offset="0.3359" style="stop-color:#9F8675"/>
		<stop  offset="0.3946" style="stop-color:#8B7E8D"/>
		<stop  offset="0.4575" style="stop-color:#7C79A0"/>
		<stop  offset="0.5236" style="stop-color:#7375AA"/>
		<stop  offset="0.5974" style="stop-color:#7074AE"/>
		<stop  offset="0.6346" style="stop-color:#7A66A7"/>
		<stop  offset="0.7189" style="stop-color:#8D4D99"/>
		<stop  offset="0.8063" style="stop-color:#9B3A8F"/>
		<stop  offset="0.8978" style="stop-color:#A33089"/>
		<stop  offset="1" style="stop-color:#A62C87"/>
	</linearGradient>
	<path class="st29" d="M445.6,194.5c-18.3-3.1-33.7-1.4-52.8-0.5c-23.7,1.2-44.9-3.6-65.8,2.4c-18.6,5.3-36.2,12.1-57.2,14.5
		c-10.8,1.2-20.9,4.8-27.5,13.7c-8.7,11.7-15.3,17.2-21.3,28.1c-9.8,17.7-31.5,32-41.6,51.9c-9.3,18.4-6.3,42,3.7,60.8
		c12.1,23.1,32,41.7,54.5,54.9c25.3,14.9,54.7,23,84.1,22.8c8.9-0.1,17.9-1.7,25.4-6.5c8.6-5.6,15.8-13.1,21-21.8
		c6.9-11.4,9.3-25,14.3-36.7c2.3-5.2,6.1-7.9,10.7-10c13.4-0.1,28.5,7,44.5,10.1c35,6.7,72.4,9.1,109.7,8.2
		c33.2-0.8,68.1-6.8,93.9-26.7c17.3-13.3,29.3-34.4,25.2-55.5c-3.6-18.5-20-33.3-38.7-38.5c-15.7-4.4-33.2-1.4-47.2,4.4
		c-6.4,2.7-12.4,5.5-19.4,4.6c-6.7-4.1-12.2-10.7-18.1-16.6c-12.6-12.5-26.4-24.5-41.9-35.9C484.3,209.8,466,197.9,445.6,194.5z"/>
	
		<linearGradient id="SVGID_29_" gradientUnits="userSpaceOnUse" x1="203.5445" y1="271.8435" x2="592.4486" y2="271.8435" gradientTransform="matrix(0.7269 0.6867 -0.6867 0.7269 310.3866 -148.6666)">
		<stop  offset="0" style="stop-color:#F9ED32"/>
		<stop  offset="2.740175e-02" style="stop-color:#EFE339"/>
		<stop  offset="0.1681" style="stop-color:#C2B25B"/>
		<stop  offset="0.2754" style="stop-color:#A6946F"/>
		<stop  offset="0.3359" style="stop-color:#9C8977"/>
		<stop  offset="0.3946" style="stop-color:#87818F"/>
		<stop  offset="0.4575" style="stop-color:#777BA2"/>
		<stop  offset="0.5236" style="stop-color:#6E77AC"/>
		<stop  offset="0.5974" style="stop-color:#6B76B0"/>
		<stop  offset="0.6391" style="stop-color:#7766A7"/>
		<stop  offset="0.7224" style="stop-color:#8A4D99"/>
		<stop  offset="0.8087" style="stop-color:#983A8F"/>
		<stop  offset="0.8991" style="stop-color:#A03089"/>
		<stop  offset="1" style="stop-color:#A32C87"/>
	</linearGradient>
	<path class="st30" d="M445.6,192.5c-18.5-3-34.1-0.9-53.3,0.1c-24,1.3-45.4-3.5-66.6,2.9c-19,5.7-37,12.9-58.6,15.2
		c-11,1.2-21.4,4.6-28.1,13.6c-8.7,11.7-14.7,17.7-20.6,28.7c-9.7,18.3-31.9,32.5-42.3,52.6c-9.6,18.6-6.6,42.5,3.5,61.6
		c12.2,23.2,32.2,41.7,54.8,55c26.1,15.3,56.4,23.6,86.6,23.4c9-0.1,18.3-1.7,25.8-6.6c8.6-5.6,15.7-13.2,20.9-21.9
		c7.1-11.8,9.6-25.7,14.6-37.8c2.2-5.3,6-8.2,10.5-10.5c13.1-0.5,28.1,6.3,43.9,9.1c35.6,6.4,73.5,8.6,111.3,7.6
		c33.9-0.8,69.4-6.9,96-27.1c17.7-13.4,30.2-34.7,26.3-56.2c-3.5-18.9-20-33.9-38.9-39.4c-16-4.6-34-1.5-48.4,4.7
		c-6.6,2.8-12.7,5.9-19.9,5c-6.7-3.9-12.2-10.4-18.2-16.1c-13-12.4-27.1-24.4-42.7-35.8C484.9,208.1,466.4,195.8,445.6,192.5z"/>
	
		<linearGradient id="SVGID_30_" gradientUnits="userSpaceOnUse" x1="200.9152" y1="271.6643" x2="593.8398" y2="271.6643" gradientTransform="matrix(0.7269 0.6867 -0.6867 0.7269 310.3866 -148.6666)">
		<stop  offset="0" style="stop-color:#F9ED32"/>
		<stop  offset="2.246069e-02" style="stop-color:#F1E538"/>
		<stop  offset="0.1654" style="stop-color:#C1B45C"/>
		<stop  offset="0.2744" style="stop-color:#A49672"/>
		<stop  offset="0.3359" style="stop-color:#998B7A"/>
		<stop  offset="0.3946" style="stop-color:#848392"/>
		<stop  offset="0.4575" style="stop-color:#747EA5"/>
		<stop  offset="0.5236" style="stop-color:#6A7AAF"/>
		<stop  offset="0.5974" style="stop-color:#6779B3"/>
		<stop  offset="0.6456" style="stop-color:#7566A9"/>
		<stop  offset="0.7274" style="stop-color:#884D9A"/>
		<stop  offset="0.8122" style="stop-color:#963A90"/>
		<stop  offset="0.9009" style="stop-color:#9E308A"/>
		<stop  offset="1" style="stop-color:#A12C88"/>
	</linearGradient>
	<path class="st31" d="M445.5,190.5c-18.7-2.9-34.5-0.4-53.9,0.7c-24.3,1.4-45.9-3.4-67.4,3.4c-19.5,6.1-37.9,13.7-60,16
		c-11.2,1.2-21.9,4.4-28.7,13.5c-8.7,11.7-14.2,18.2-19.8,29.3c-9.5,18.8-32.3,33.1-43.1,53.4c-9.9,18.8-7,43.1,3.3,62.4
		c12.3,23.3,32.4,41.8,55.1,55.1c26.9,15.7,58,24.2,89.2,24.1c9.2-0.1,18.6-1.7,26.3-6.7c8.6-5.6,15.6-13.2,20.8-21.9
		c7.2-12.1,9.8-26.4,14.8-38.9c2.1-5.4,5.8-8.5,10.3-10.9c12.8-0.9,27.8,5.5,43.4,8.1c36.2,6,74.6,8.1,113,7.1
		c34.6-0.9,70.8-7.1,98-27.5c18-13.5,31.1-35.1,27.3-57c-3.3-19.2-20-34.6-39.1-40.2c-16.4-4.8-34.8-1.6-49.5,4.9
		c-6.7,3-13,6.2-20.3,5.4c-6.7-3.7-12.3-10.1-18.3-15.6c-13.3-12.3-27.8-24.2-43.6-35.8C485.5,206.5,466.8,193.7,445.5,190.5z"/>
	
		<linearGradient id="SVGID_31_" gradientUnits="userSpaceOnUse" x1="198.2855" y1="271.4838" x2="595.2358" y2="271.4838" gradientTransform="matrix(0.7269 0.6867 -0.6867 0.7269 310.3866 -148.6666)">
		<stop  offset="0" style="stop-color:#F9ED32"/>
		<stop  offset="2.495055e-02" style="stop-color:#F0E439"/>
		<stop  offset="0.1667" style="stop-color:#BFB65D"/>
		<stop  offset="0.2749" style="stop-color:#A19974"/>
		<stop  offset="0.3359" style="stop-color:#968E7C"/>
		<stop  offset="0.3962" style="stop-color:#7F8695"/>
		<stop  offset="0.4586" style="stop-color:#6F80A8"/>
		<stop  offset="0.5242" style="stop-color:#657CB2"/>
		<stop  offset="0.5974" style="stop-color:#627BB6"/>
		<stop  offset="0.6497" style="stop-color:#7266AA"/>
		<stop  offset="0.7306" style="stop-color:#854D9B"/>
		<stop  offset="0.8143" style="stop-color:#933A90"/>
		<stop  offset="0.902" style="stop-color:#9B308A"/>
		<stop  offset="1" style="stop-color:#9E2C88"/>
	</linearGradient>
	<path class="st32" d="M445.5,188.5c-18.9-2.8-35,0.1-54.5,1.3c-24.6,1.5-46.5-3.3-68.2,3.9c-19.9,6.6-38.8,14.5-61.4,16.8
		c-11.3,1.1-22.4,4.2-29.2,13.5c-8.7,11.7-13.7,18.6-19.1,29.9c-9.3,19.4-32.7,33.6-43.8,54.2c-10.2,19-7.3,43.7,3.1,63.3
		c12.3,23.4,32.6,41.9,55.3,55.2c27.6,16.2,59.6,24.8,91.7,24.7c9.3-0.1,18.9-1.7,26.7-6.8c8.5-5.6,15.5-13.3,20.7-22
		c7.4-12.5,10.1-27.1,15-40c2.1-5.5,5.6-8.8,10.1-11.4c12.5-1.3,27.4,4.7,42.8,7.1c36.9,5.7,75.8,7.6,114.6,6.5
		c35.2-0.9,72.1-7.2,100.1-27.9c18.4-13.7,31.9-35.5,28.3-57.8c-3.2-19.5-20-35.3-39.4-41.1c-16.8-4.9-35.6-1.7-50.7,5.2
		c-6.8,3.1-13.3,6.6-20.8,5.9c-6.8-3.5-12.4-9.7-18.4-15.1C534.7,241.5,520,229.7,504,218C486.1,204.8,467.1,191.6,445.5,188.5z"/>
	
		<linearGradient id="SVGID_32_" gradientUnits="userSpaceOnUse" x1="195.6555" y1="271.3019" x2="596.6366" y2="271.3019" gradientTransform="matrix(0.7269 0.6867 -0.6867 0.7269 310.3866 -148.6666)">
		<stop  offset="0" style="stop-color:#F9ED32"/>
		<stop  offset="3.213590e-02" style="stop-color:#EDE23B"/>
		<stop  offset="0.1706" style="stop-color:#BCB65F"/>
		<stop  offset="0.2763" style="stop-color:#9E9B76"/>
		<stop  offset="0.3359" style="stop-color:#93917E"/>
		<stop  offset="0.3962" style="stop-color:#7B8897"/>
		<stop  offset="0.4586" style="stop-color:#6A82AA"/>
		<stop  offset="0.5242" style="stop-color:#607EB4"/>
		<stop  offset="0.5974" style="stop-color:#5D7DB8"/>
		<stop  offset="0.6537" style="stop-color:#6E66AA"/>
		<stop  offset="0.7336" style="stop-color:#824D9B"/>
		<stop  offset="0.8164" style="stop-color:#903A91"/>
		<stop  offset="0.9031" style="stop-color:#98308A"/>
		<stop  offset="1" style="stop-color:#9B2C88"/>
	</linearGradient>
	<path class="st33" d="M445.4,186.5c-19.1-2.7-35.4,0.6-55.1,1.9c-24.9,1.6-47-3.2-69,4.4c-20.4,7-39.6,15.3-62.8,17.5
		c-11.5,1.1-22.9,4-29.8,13.4c-8.6,11.7-13.1,19.1-18.3,30.5c-9.1,20-33.2,34.1-44.5,54.9c-10.5,19.2-7.7,44.3,2.9,64.1
		c12.4,23.4,32.8,41.9,55.6,55.3c28.4,16.6,61.3,25.4,94.2,25.3c9.5-0.1,19.3-1.6,27.2-6.8c8.5-5.6,15.4-13.4,20.6-22.1
		c7.5-12.8,10.4-27.7,15.3-41.1c2-5.6,5.4-9.1,9.9-11.9c12.2-1.7,27,3.9,42.3,6.1c37.5,5.3,76.9,7.1,116.2,6
		c35.9-1,73.5-7.3,102.1-28.3c18.8-13.8,32.8-35.8,29.3-58.6c-3.1-19.8-20-36-39.6-41.9c-17.2-5.1-36.5-1.8-51.8,5.4
		c-7,3.3-13.5,7-21.3,6.3c-6.8-3.3-12.5-9.4-18.5-14.6c-14.1-12.2-29.1-23.9-45.2-35.7C486.8,203.2,467.5,189.5,445.4,186.5z"/>
	
		<linearGradient id="SVGID_33_" gradientUnits="userSpaceOnUse" x1="193.0252" y1="271.1189" x2="598.0419" y2="271.1189" gradientTransform="matrix(0.7269 0.6867 -0.6867 0.7269 310.3866 -148.6666)">
		<stop  offset="0" style="stop-color:#F9ED32"/>
		<stop  offset="3.895630e-02" style="stop-color:#EAE03D"/>
		<stop  offset="0.1743" style="stop-color:#B9B662"/>
		<stop  offset="0.2776" style="stop-color:#9B9D79"/>
		<stop  offset="0.3359" style="stop-color:#909381"/>
		<stop  offset="0.3962" style="stop-color:#788B9A"/>
		<stop  offset="0.4586" style="stop-color:#6785AD"/>
		<stop  offset="0.5242" style="stop-color:#5C81B7"/>
		<stop  offset="0.5974" style="stop-color:#5980BB"/>
		<stop  offset="0.6594" style="stop-color:#6D66AC"/>
		<stop  offset="0.738" style="stop-color:#804D9C"/>
		<stop  offset="0.8194" style="stop-color:#8E3A92"/>
		<stop  offset="0.9047" style="stop-color:#96308B"/>
		<stop  offset="1" style="stop-color:#992C89"/>
	</linearGradient>
	<path class="st34" d="M445.4,184.5c-19.3-2.6-35.9,1.2-55.7,2.5c-25.2,1.7-47.5-3.1-69.8,4.9c-20.8,7.4-40.5,16.1-64.2,18.3
		c-11.7,1.1-23.3,3.8-30.3,13.3c-8.6,11.7-12.6,19.6-17.6,31.1c-8.9,20.6-33.6,34.6-45.3,55.7c-10.8,19.4-8,44.8,2.7,64.9
		c12.4,23.5,32.9,42,55.9,55.4c29.2,17,62.9,26.1,96.7,25.9c9.6-0.1,19.6-1.6,27.6-6.9c8.5-5.6,15.4-13.4,20.4-22.2
		c7.6-13.1,10.6-28.4,15.5-42.2c2-5.6,5.3-9.4,9.8-12.3c12-2.1,26.7,3.2,41.7,5.1c38.1,5,78,6.6,117.9,5.4
		c36.6-1,74.9-7.5,104.2-28.7c19.2-13.9,33.7-36.2,30.3-59.3c-3-20.1-20-36.7-39.9-42.8c-17.5-5.3-37.3-1.9-53,5.6
		c-7.1,3.4-13.8,7.3-21.7,6.8c-6.8-3.2-12.6-9-18.7-14.1c-14.4-12.1-29.8-23.8-46-35.7C487.4,201.5,467.9,187.4,445.4,184.5z"/>
	
		<linearGradient id="SVGID_34_" gradientUnits="userSpaceOnUse" x1="190.3946" y1="270.9347" x2="599.4517" y2="270.9347" gradientTransform="matrix(0.7269 0.6867 -0.6867 0.7269 310.3866 -148.6666)">
		<stop  offset="0" style="stop-color:#F9ED32"/>
		<stop  offset="4.543282e-02" style="stop-color:#E7DE40"/>
		<stop  offset="0.1778" style="stop-color:#B6B764"/>
		<stop  offset="0.2789" style="stop-color:#989F7B"/>
		<stop  offset="0.3359" style="stop-color:#8D9683"/>
		<stop  offset="0.3377" style="stop-color:#8C9684"/>
		<stop  offset="0.3978" style="stop-color:#748D9D"/>
		<stop  offset="0.4597" style="stop-color:#6287B0"/>
		<stop  offset="0.5247" style="stop-color:#5783BA"/>
		<stop  offset="0.5974" style="stop-color:#5482BE"/>
		<stop  offset="0.663" style="stop-color:#6966AD"/>
		<stop  offset="0.7408" style="stop-color:#7D4D9D"/>
		<stop  offset="0.8214" style="stop-color:#8B3A92"/>
		<stop  offset="0.9057" style="stop-color:#93308B"/>
		<stop  offset="1" style="stop-color:#962C89"/>
	</linearGradient>
	<path class="st35" d="M445.3,182.5c-19.4-2.5-36.3,1.7-56.3,3.1c-25.5,1.8-48-3-70.6,5.4c-21.2,7.9-41.4,16.9-65.6,19
		c-11.8,1.1-23.8,3.6-30.9,13.2c-8.6,11.7-12,20-16.8,31.7c-8.6,21.1-34,35.2-46,56.4c-11.1,19.6-8.3,45.4,2.5,65.8
		c12.5,23.6,33.1,42.1,56.2,55.5c29.9,17.4,64.6,26.7,99.2,26.5c9.8-0.1,19.9-1.6,28.1-7c8.5-5.6,15.3-13.5,20.3-22.3
		c7.8-13.5,10.9-29.1,15.7-43.3c1.9-5.7,5.1-9.7,9.6-12.8c11.7-2.5,26.3,2.4,41.1,4.1c38.7,4.6,79.1,6.1,119.5,4.9
		c37.3-1.1,76.2-7.6,106.2-29.1c19.6-14,34.6-36.5,31.3-60.1c-2.8-20.4-20-37.4-40.1-43.6c-17.9-5.5-38.1-2-54.2,5.9
		c-7.2,3.6-14.3,9.1-22.2,7.2c-7.2-1.7-12.7-8.7-18.8-13.7c-14.8-12-30.5-23.6-46.8-35.6C488,199.9,468.2,185.4,445.3,182.5z"/>
	
		<linearGradient id="SVGID_35_" gradientUnits="userSpaceOnUse" x1="187.7638" y1="270.7494" x2="600.8657" y2="270.7494" gradientTransform="matrix(0.7269 0.6867 -0.6867 0.7269 310.3866 -148.6666)">
		<stop  offset="0" style="stop-color:#F9ED32"/>
		<stop  offset="5.168107e-02" style="stop-color:#E4DD42"/>
		<stop  offset="0.1812" style="stop-color:#B3B866"/>
		<stop  offset="0.2801" style="stop-color:#95A17D"/>
		<stop  offset="0.3359" style="stop-color:#8A9885"/>
		<stop  offset="0.3395" style="stop-color:#889787"/>
		<stop  offset="0.3991" style="stop-color:#6F8FA0"/>
		<stop  offset="0.4607" style="stop-color:#5D8AB3"/>
		<stop  offset="0.5253" style="stop-color:#5286BD"/>
		<stop  offset="0.5974" style="stop-color:#4F85C1"/>
		<stop  offset="0.6682" style="stop-color:#6766AE"/>
		<stop  offset="0.7448" style="stop-color:#7A4D9E"/>
		<stop  offset="0.8241" style="stop-color:#883A93"/>
		<stop  offset="0.9072" style="stop-color:#90308C"/>
		<stop  offset="1" style="stop-color:#932C8A"/>
	</linearGradient>
	<path class="st36" d="M445.3,180.5c-19.6-2.4-36.7,2.2-56.8,3.7c-25.8,1.9-48.5-2.9-71.4,5.9c-21.7,8.3-42.2,17.7-67,19.8
		c-12,1-24.3,3.4-31.5,13.2c-8.6,11.7-11.5,20.5-16.1,32.3c-8.4,21.7-34.4,35.7-46.8,57.2c-11.4,19.8-8.7,46,2.3,66.6
		c12.5,23.7,33.3,42.1,56.5,55.6c30.7,17.8,66.2,27.3,101.7,27.1c9.9-0.1,20.2-1.6,28.5-7.1c8.5-5.6,15.2-13.6,20.2-22.3
		c7.9-13.8,11.2-29.8,16-44.4c1.9-5.8,4.9-10,9.4-13.3c11.4-2.9,25.9,4.7,40.6,3.1c39.4-4.2,80.3,5.6,121.2,4.3
		c38-1.2,77.6-7.8,108.3-29.5c20-14.1,35.5-36.9,32.3-60.9c-2.7-20.8-20-38.1-40.4-44.5c-18.3-5.7-38.9-2.1-55.3,6.1
		c-7.4,3.7-14.6,9.4-22.7,7.6c-7.2-1.6-12.8-8.4-18.9-13.2c-15.2-11.9-31.1-23.5-47.6-35.6C488.6,198.3,468.6,183.3,445.3,180.5z"/>
	
		<linearGradient id="SVGID_36_" gradientUnits="userSpaceOnUse" x1="185.1328" y1="270.5631" x2="602.2839" y2="270.5631" gradientTransform="matrix(0.7269 0.6867 -0.6867 0.7269 310.3866 -148.6666)">
		<stop  offset="0" style="stop-color:#F9ED32"/>
		<stop  offset="5.752217e-02" style="stop-color:#E1DC44"/>
		<stop  offset="0.1844" style="stop-color:#B0B969"/>
		<stop  offset="0.2813" style="stop-color:#92A380"/>
		<stop  offset="0.3359" style="stop-color:#879B88"/>
		<stop  offset="0.3395" style="stop-color:#859A8A"/>
		<stop  offset="0.3991" style="stop-color:#6C92A3"/>
		<stop  offset="0.4607" style="stop-color:#598CB5"/>
		<stop  offset="0.5253" style="stop-color:#4F88C0"/>
		<stop  offset="0.5974" style="stop-color:#4B87C3"/>
		<stop  offset="0.6716" style="stop-color:#6466AE"/>
		<stop  offset="0.7474" style="stop-color:#784D9E"/>
		<stop  offset="0.8259" style="stop-color:#863A93"/>
		<stop  offset="0.9081" style="stop-color:#8E308C"/>
		<stop  offset="1" style="stop-color:#912C8A"/>
	</linearGradient>
	<path class="st37" d="M445.3,178.5c-19.8-2.3-37.2,2.7-57.4,4.3c-26.2,2-49-2.8-72.2,6.3c-22.1,8.8-43.1,18.5-68.4,20.6
		c-12.2,1-24.8,3.1-32,13.1c-8.6,11.7-10.9,21-15.3,32.9c-8.2,22.3-34.8,36.2-47.5,58c-11.7,20-9,46.6,2.1,67.4
		c12.6,23.7,33.5,42.2,56.8,55.6c31.5,18.2,67.9,27.9,104.2,27.8c10.1-0.1,20.6-1.5,29-7.1c8.5-5.6,15.1-13.6,20.1-22.4
		c8-14.2,11.5-30.4,16.2-45.6c1.8-5.9,4.7-10.3,9.2-13.8c11.1-3.3,25.6,3.8,40,2.1c39.9-4.5,81.4,5.1,122.8,3.8
		c38.7-1.2,78.9-7.9,110.3-29.9c20.4-14.3,36.3-37.2,33.3-61.6c-2.6-21.1-20-38.8-40.6-45.3c-18.7-5.9-39.8-2.2-56.5,6.4
		c-7.5,3.9-14.8,9.8-23.1,8.1c-7.2-1.5-12.8-8-19-12.7c-15.5-11.8-31.8-23.3-48.5-35.6C489.2,196.6,468.9,181.2,445.3,178.5z"/>
	
		<linearGradient id="SVGID_37_" gradientUnits="userSpaceOnUse" x1="182.5016" y1="270.3759" x2="603.7061" y2="270.3759" gradientTransform="matrix(0.7269 0.6867 -0.6867 0.7269 310.3866 -148.6666)">
		<stop  offset="0" style="stop-color:#F9ED32"/>
		<stop  offset="6.316102e-02" style="stop-color:#DEDA47"/>
		<stop  offset="0.1875" style="stop-color:#ADB96B"/>
		<stop  offset="0.2824" style="stop-color:#8FA582"/>
		<stop  offset="0.3359" style="stop-color:#849D8A"/>
		<stop  offset="0.3433" style="stop-color:#809C8E"/>
		<stop  offset="0.402" style="stop-color:#6794A6"/>
		<stop  offset="0.4628" style="stop-color:#548EB8"/>
		<stop  offset="0.5264" style="stop-color:#4A8BC3"/>
		<stop  offset="0.5974" style="stop-color:#468AC6"/>
		<stop  offset="0.603" style="stop-color:#4887C4"/>
		<stop  offset="0.6759" style="stop-color:#6166B0"/>
		<stop  offset="0.751" style="stop-color:#754DA0"/>
		<stop  offset="0.8284" style="stop-color:#833A94"/>
		<stop  offset="0.9095" style="stop-color:#8B308D"/>
		<stop  offset="1" style="stop-color:#8E2C8B"/>
	</linearGradient>
	<path class="st38" d="M445.2,176.4c-20-2.2-37.6,3.3-58,4.9c-26.5,2.1-49.6-2.7-73,6.8c-22.6,9.2-44,19.3-69.8,21.3
		c-12.3,1-25.3,2.9-32.6,13c-8.5,11.8-10.4,21.4-14.6,33.5c-7.9,22.8-35.2,36.7-48.3,58.7c-12,20.2-9.4,47.1,1.9,68.2
		c12.6,23.8,33.7,42.3,57.1,55.7c32.2,18.6,69.5,28.5,106.7,28.4c10.3-0.1,20.9-1.5,29.4-7.2c8.5-5.6,15-13.7,20-22.5
		c8.2-14.5,11.8-31.1,16.4-46.7c1.8-6,4.6-10.6,9-14.2c10.8-3.7,25.3,2.8,39.5,1.2c40.5-4.7,82.5,4.6,124.4,3.2
		c39.4-1.3,80.3-8,112.3-30.3c20.7-14.4,37.2-37.6,34.4-62.4c-2.5-21.4-20-39.5-40.9-46.2c-19-6.1-40.6-2.3-57.6,6.6
		c-7.6,4-15.1,10.1-23.6,8.5c-7.2-1.3-12.9-7.6-19.1-12.2c-15.9-11.7-32.5-23.2-49.3-35.5C489.8,195,469.3,179.1,445.2,176.4z"/>
	
		<linearGradient id="SVGID_38_" gradientUnits="userSpaceOnUse" x1="179.8703" y1="270.1877" x2="605.1322" y2="270.1877" gradientTransform="matrix(0.7269 0.6867 -0.6867 0.7269 310.3866 -148.6666)">
		<stop  offset="0" style="stop-color:#F9ED32"/>
		<stop  offset="6.850864e-02" style="stop-color:#DBDA49"/>
		<stop  offset="0.1904" style="stop-color:#AABB6D"/>
		<stop  offset="0.2834" style="stop-color:#8CA784"/>
		<stop  offset="0.3359" style="stop-color:#81A08C"/>
		<stop  offset="0.347" style="stop-color:#7B9E92"/>
		<stop  offset="0.4048" style="stop-color:#6296AA"/>
		<stop  offset="0.4647" style="stop-color:#4F91BB"/>
		<stop  offset="0.5274" style="stop-color:#458DC6"/>
		<stop  offset="0.5974" style="stop-color:#418CC9"/>
		<stop  offset="0.6067" style="stop-color:#4587C6"/>
		<stop  offset="0.679" style="stop-color:#5E66B1"/>
		<stop  offset="0.7534" style="stop-color:#724DA0"/>
		<stop  offset="0.8301" style="stop-color:#803A94"/>
		<stop  offset="0.9103" style="stop-color:#88308D"/>
		<stop  offset="1" style="stop-color:#8B2C8B"/>
	</linearGradient>
	<path class="st39" d="M445.2,174.4c-20.2-2.1-38,3.8-58.6,5.5c-26.8,2.3-50.1-2.6-73.8,7.3c-23,9.6-44.8,20.1-71.2,22.1
		c-12.5,0.9-25.8,2.7-33.2,12.9c-8.5,11.8-9.8,21.9-13.8,34.1c-7.7,23.4-35.6,37.2-49,59.5c-12.3,20.4-9.7,47.7,1.7,69.1
		c12.7,23.9,33.9,42.3,57.4,55.8c33,19.1,71.1,29.2,109.2,29c10.4-0.1,21.2-1.5,29.9-7.3c8.4-5.6,14.9-13.8,19.8-22.6
		c8.3-14.9,12.1-31.8,16.7-47.8c1.7-6.1,3.8-11.7,8.8-14.7c9.7-5.8,24.9,1.9,38.9,0.2c41-5,83.6,4.1,126.1,2.7
		c40.1-1.3,81.7-8.2,114.4-30.7c21.1-14.5,38.1-37.9,35.4-63.2c-2.3-21.7-20-40.2-41.1-47c-19.4-6.2-41.4-2.4-58.8,6.8
		c-7.8,4.2-15.3,10.4-24,9c-7.1-1.2-13-7.3-19.2-11.7c-16.3-11.6-33.1-23-50.1-35.5C490.4,193.3,469.7,177,445.2,174.4z"/>
	
		<linearGradient id="SVGID_39_" gradientUnits="userSpaceOnUse" x1="177.2387" y1="269.9988" x2="606.5621" y2="269.9988" gradientTransform="matrix(0.7269 0.6867 -0.6867 0.7269 310.3866 -148.6666)">
		<stop  offset="0" style="stop-color:#F9ED32"/>
		<stop  offset="7.365479e-02" style="stop-color:#D8D94B"/>
		<stop  offset="0.1932" style="stop-color:#A7BC70"/>
		<stop  offset="0.2844" style="stop-color:#89AA86"/>
		<stop  offset="0.3359" style="stop-color:#7EA38F"/>
		<stop  offset="0.3487" style="stop-color:#77A195"/>
		<stop  offset="0.4062" style="stop-color:#5E99AD"/>
		<stop  offset="0.4656" style="stop-color:#4B93BE"/>
		<stop  offset="0.5279" style="stop-color:#418FC9"/>
		<stop  offset="0.5974" style="stop-color:#3D8ECC"/>
		<stop  offset="0.6104" style="stop-color:#4287C7"/>
		<stop  offset="0.682" style="stop-color:#5C66B2"/>
		<stop  offset="0.7557" style="stop-color:#704DA1"/>
		<stop  offset="0.8317" style="stop-color:#7E3A95"/>
		<stop  offset="0.9112" style="stop-color:#86308D"/>
		<stop  offset="1" style="stop-color:#892C8B"/>
	</linearGradient>
	<path class="st40" d="M445.1,172.4c-20.4-2-38.5,4.3-59.2,6.1c-27.1,2.4-50.6-2.5-74.6,7.8c-23.4,10.1-45.7,20.9-72.6,22.9
		c-12.7,0.9-26.2,2.5-33.7,12.8c-8.5,11.8-9.3,22.3-13.1,34.7c-7.4,24-36,37.8-49.8,60.3c-12.6,20.6-10.1,48.3,1.5,69.9
		c12.7,24,34.1,42.4,57.6,55.9C235,462.3,274,472.7,313,472.5c10.6-0.1,21.5-1.5,30.3-7.4c8.4-5.7,14.8-13.8,19.7-22.7
		c8.4-15.2,12.4-32.5,16.9-48.9c1.7-6.2,3.6-12,8.6-15.2c9.4-6,24.6,0.9,38.3-0.8c41.6-5.2,84.7,3.5,127.7,2.1
		c40.7-1.5,83-8.3,116.4-31.1c21.5-14.6,39-38.3,36.4-63.9c-2.2-22-20-40.9-41.4-47.9c-19.8-6.4-42.3-2.6-60,7.1
		c-7.9,4.3-15.6,10.8-24.5,9.4c-7.1-1.1-13.1-6.9-19.4-11.2c-16.7-11.5-33.8-22.9-50.9-35.4C491,191.7,470,174.9,445.1,172.4z"/>
	
		<linearGradient id="SVGID_40_" gradientUnits="userSpaceOnUse" x1="174.607" y1="269.809" x2="607.9956" y2="269.809" gradientTransform="matrix(0.7269 0.6867 -0.6867 0.7269 310.3866 -148.6666)">
		<stop  offset="0" style="stop-color:#F9ED32"/>
		<stop  offset="7.853997e-02" style="stop-color:#D5D84D"/>
		<stop  offset="0.1958" style="stop-color:#A4BD72"/>
		<stop  offset="0.2854" style="stop-color:#86AB89"/>
		<stop  offset="0.3359" style="stop-color:#7BA591"/>
		<stop  offset="0.3521" style="stop-color:#72A299"/>
		<stop  offset="0.4088" style="stop-color:#599BB0"/>
		<stop  offset="0.4674" style="stop-color:#4695C1"/>
		<stop  offset="0.5288" style="stop-color:#3C92CB"/>
		<stop  offset="0.5974" style="stop-color:#3891CE"/>
		<stop  offset="0.6157" style="stop-color:#4087C8"/>
		<stop  offset="0.6863" style="stop-color:#5966B2"/>
		<stop  offset="0.759" style="stop-color:#6D4DA1"/>
		<stop  offset="0.8339" style="stop-color:#7B3A95"/>
		<stop  offset="0.9124" style="stop-color:#83308E"/>
		<stop  offset="1" style="stop-color:#862C8C"/>
	</linearGradient>
	<path class="st41" d="M445.1,170.4c-20.5-1.9-38.9,4.8-59.8,6.7c-27.4,2.5-51.1-2.4-75.4,8.3c-23.8,10.5-46.6,21.7-74.1,23.6
		c-12.8,0.9-26.7,2.3-34.3,12.8c-8.5,11.8-8.7,22.8-12.3,35.3c-7.1,24.5-36.4,38.3-50.5,61c-12.9,20.8-10.4,48.9,1.3,70.7
		c12.8,24,34.3,42.5,57.9,56c34.5,19.9,74.4,30.4,114.3,30.2c10.7-0.1,21.9-1.4,30.8-7.4c8.4-5.7,14.7-13.9,19.6-22.8
		c8.5-15.6,12.7-33.1,17.1-50c1.6-6.2,3.5-12.2,8.4-15.6c9.2-6.3,24.2-0.1,37.8-1.8c42.1-5.4,85.9,3,129.4,1.6
		c41.4-1.5,84.4-8.5,118.5-31.5c21.9-14.8,39.8-38.6,37.4-64.7c-2.1-22.3-20-41.6-41.6-48.7c-20.1-6.6-43.1-2.7-61.1,7.3
		c-8,4.4-15.8,11.1-25,9.8c-7.1-1-13.2-6.6-19.5-10.7c-17.1-11.3-34.5-22.7-51.7-35.4C491.6,190,470.4,172.8,445.1,170.4z"/>
	
		<linearGradient id="SVGID_41_" gradientUnits="userSpaceOnUse" x1="171.9752" y1="269.6185" x2="609.4326" y2="269.6185" gradientTransform="matrix(0.7269 0.6867 -0.6867 0.7269 310.3866 -148.6666)">
		<stop  offset="0" style="stop-color:#F9ED32"/>
		<stop  offset="8.324245e-02" style="stop-color:#D2D850"/>
		<stop  offset="0.1984" style="stop-color:#A1BE74"/>
		<stop  offset="0.2863" style="stop-color:#83AE8B"/>
		<stop  offset="0.3359" style="stop-color:#78A893"/>
		<stop  offset="0.3554" style="stop-color:#6DA59D"/>
		<stop  offset="0.4113" style="stop-color:#549DB4"/>
		<stop  offset="0.4691" style="stop-color:#4197C4"/>
		<stop  offset="0.5297" style="stop-color:#3794CE"/>
		<stop  offset="0.5974" style="stop-color:#3393D1"/>
		<stop  offset="0.6191" style="stop-color:#3C87C9"/>
		<stop  offset="0.6891" style="stop-color:#5666B3"/>
		<stop  offset="0.7612" style="stop-color:#6A4DA2"/>
		<stop  offset="0.8354" style="stop-color:#783A96"/>
		<stop  offset="0.9132" style="stop-color:#80308E"/>
		<stop  offset="1" style="stop-color:#832C8C"/>
	</linearGradient>
	<path class="st42" d="M445,168.4c-20.7-1.8-39.3,5.4-60.3,7.3c-27.7,2.6-51.6-2.4-76.2,8.8c-24.3,11-47.4,22.5-75.5,24.4
		c-13,0.9-27.2,2.1-34.8,12.7c-8.5,11.8-8.1,23.2-11.6,35.9c-6.9,25.1-36.8,38.8-51.2,61.8c-13.1,21-10.8,49.4,1.1,71.6
		c12.8,24.1,34.5,42.5,58.2,56.1c35.3,20.3,76.1,31,116.8,30.8c10.9-0.1,22.2-1.4,31.2-7.5c8.4-5.7,14.7-14,19.5-22.8
		c8.7-16,13-33.8,17.4-51.1c1.6-6.3,3.3-12.5,8.3-16.1c8.9-6.5,23.8-1.1,37.2-2.8c42.7-5.6,87,2.5,131,1
		c42.1-1.6,85.7-8.6,120.5-31.9c22.3-14.9,40.7-39,38.4-65.5c-2-22.7-20-42.3-41.8-49.6c-20.5-6.8-43.9-2.8-62.3,7.6
		c-8.2,4.6-16.1,11.4-25.4,10.3c-7.1-0.8-13.3-6.2-19.6-10.3c-17.5-11.2-35.1-22.6-52.5-35.4C492.2,188.4,470.7,170.7,445,168.4z"/>
	
		<linearGradient id="SVGID_42_" gradientUnits="userSpaceOnUse" x1="169.3433" y1="269.4273" x2="610.8729" y2="269.4273" gradientTransform="matrix(0.7269 0.6867 -0.6867 0.7269 310.3866 -148.6666)">
		<stop  offset="0" style="stop-color:#F9ED32"/>
		<stop  offset="8.777694e-02" style="stop-color:#CFD852"/>
		<stop  offset="0.2008" style="stop-color:#9EBF77"/>
		<stop  offset="0.2872" style="stop-color:#80B08D"/>
		<stop  offset="0.3359" style="stop-color:#75AA96"/>
		<stop  offset="0.357" style="stop-color:#69A7A0"/>
		<stop  offset="0.4125" style="stop-color:#509FB7"/>
		<stop  offset="0.47" style="stop-color:#3D9AC7"/>
		<stop  offset="0.5302" style="stop-color:#3397D1"/>
		<stop  offset="0.5974" style="stop-color:#2F96D4"/>
		<stop  offset="0.6241" style="stop-color:#3A87CA"/>
		<stop  offset="0.6931" style="stop-color:#5466B4"/>
		<stop  offset="0.7643" style="stop-color:#684DA3"/>
		<stop  offset="0.8375" style="stop-color:#763A97"/>
		<stop  offset="0.9143" style="stop-color:#7E308F"/>
		<stop  offset="1" style="stop-color:#812C8D"/>
	</linearGradient>
	<path class="st43" d="M445,166.4c-20.9-1.7-39.8,5.9-60.9,7.9c-28,2.7-52.1-2.3-77.1,9.3c-24.7,11.4-48.3,23.3-76.9,25.1
		c-13.2,0.8-27.7,1.9-35.4,12.6c-8.4,11.8-7.6,23.7-10.8,36.5c-6.6,25.7-37.3,39.3-52,62.5c-13.4,21.2-11.1,50,0.9,72.4
		c12.9,24.2,34.7,42.6,58.5,56.2c36.1,20.7,77.7,31.6,119.3,31.5c11-0.1,22.5-1.4,31.7-7.6c8.4-5.7,14.6-14,19.3-22.9
		c8.8-16.3,13.4-34.5,17.6-52.2c1.5-6.4,3.2-12.7,8.1-16.6c8.7-6.8,23.5-2,36.7-3.8c43.3-5.8,88.1,2,132.6,0.5
		c42.8-1.6,87.1-8.7,122.6-32.3c22.7-15,41.6-39.3,39.4-66.3c-1.9-23-20-43-42.1-50.4c-20.9-7-44.7-2.9-63.4,7.8
		c-8.3,4.7-16.3,11.7-25.9,10.7c-7.1-0.7-13.4-5.9-19.7-9.8c-17.8-11.1-35.8-22.4-53.4-35.3C492.8,186.7,471.1,168.6,445,166.4z"/>
	
		<linearGradient id="SVGID_43_" gradientUnits="userSpaceOnUse" x1="166.7112" y1="269.2354" x2="612.3166" y2="269.2354" gradientTransform="matrix(0.7269 0.6867 -0.6867 0.7269 310.3866 -148.6666)">
		<stop  offset="0" style="stop-color:#F9ED32"/>
		<stop  offset="9.210593e-02" style="stop-color:#CCD854"/>
		<stop  offset="0.2032" style="stop-color:#9BC179"/>
		<stop  offset="0.288" style="stop-color:#7DB28F"/>
		<stop  offset="0.3359" style="stop-color:#72AD98"/>
		<stop  offset="0.36" style="stop-color:#64A9A4"/>
		<stop  offset="0.4148" style="stop-color:#4BA2BA"/>
		<stop  offset="0.4716" style="stop-color:#389CCA"/>
		<stop  offset="0.531" style="stop-color:#2E99D3"/>
		<stop  offset="0.5974" style="stop-color:#2A98D6"/>
		<stop  offset="0.6273" style="stop-color:#3787CB"/>
		<stop  offset="0.6957" style="stop-color:#5166B4"/>
		<stop  offset="0.7663" style="stop-color:#654DA3"/>
		<stop  offset="0.8389" style="stop-color:#733A97"/>
		<stop  offset="0.915" style="stop-color:#7B308F"/>
		<stop  offset="1" style="stop-color:#7E2C8D"/>
	</linearGradient>
	<path class="st44" d="M444.9,164.4c-21.1-1.6-40.2,6.4-61.5,8.5c-28.3,2.8-52.5-2.2-77.9,9.8c-25.1,11.9-49.2,24.1-78.3,25.9
		c-13.3,0.8-28.2,1.6-36,12.5c-8.4,11.8-7,24.1-10.1,37.1c-6.3,26.2-37.7,39.9-52.7,63.3c-13.7,21.4-11.5,50.6,0.7,73.2
		c12.9,24.3,34.9,42.7,58.8,56.3c36.9,21.1,79.3,32.3,121.8,32.1c11.2-0.1,22.9-1.4,32.1-7.6c8.4-5.7,14.5-14.1,19.2-23
		c8.9-16.7,13.7-35.2,17.8-53.3c1.5-6.5,3-13,7.9-17c8.4-7.1,23.1-3,36.1-4.8c43.9-5.9,89.2,1.5,134.3-0.1
		c43.5-1.7,88.5-8.9,124.6-32.7c23-15.1,42.5-39.7,40.4-67c-1.7-23.3-20-43.7-42.3-51.3c-21.3-7.2-45.6-3-64.6,8
		c-8.5,4.9-16.6,12-26.4,11.2c-7.1-0.6-13.5-5.5-19.8-9.3C550.9,225.4,532.7,214,515,201C493.4,185.1,471.5,166.5,444.9,164.4z"/>
	
		<linearGradient id="SVGID_44_" gradientUnits="userSpaceOnUse" x1="164.0791" y1="269.0429" x2="613.7634" y2="269.0429" gradientTransform="matrix(0.7269 0.6867 -0.6867 0.7269 310.3866 -148.6666)">
		<stop  offset="0" style="stop-color:#F9ED32"/>
		<stop  offset="9.626110e-02" style="stop-color:#C9D756"/>
		<stop  offset="0.2054" style="stop-color:#98C27B"/>
		<stop  offset="0.2889" style="stop-color:#7AB492"/>
		<stop  offset="0.3359" style="stop-color:#6FAF9A"/>
		<stop  offset="0.363" style="stop-color:#5FABA7"/>
		<stop  offset="0.4171" style="stop-color:#46A4BD"/>
		<stop  offset="0.4732" style="stop-color:#339FCD"/>
		<stop  offset="0.5319" style="stop-color:#299CD6"/>
		<stop  offset="0.5974" style="stop-color:#259BD9"/>
		<stop  offset="0.6304" style="stop-color:#3488CC"/>
		<stop  offset="0.6982" style="stop-color:#4D67B6"/>
		<stop  offset="0.7682" style="stop-color:#614EA4"/>
		<stop  offset="0.8403" style="stop-color:#703B98"/>
		<stop  offset="0.9157" style="stop-color:#783190"/>
		<stop  offset="1" style="stop-color:#7B2D8E"/>
	</linearGradient>
	<path class="st45" d="M444.9,162.4c-21.3-1.5-40.6,6.9-62.1,9.1c-28.6,2.9-53-2.1-78.7,10.3c-25.5,12.3-50,24.9-79.7,26.7
		c-13.5,0.8-28.7,1.4-36.5,12.5c-8.4,11.8-6.4,24.6-9.3,37.7c-6,26.8-38,40.4-53.5,64.1c-14,21.6-11.8,51.2,0.5,74.1
		c13,24.3,35.1,42.7,59.1,56.4c37.6,21.5,81,32.9,124.3,32.7c11.3-0.1,23.2-1.4,32.6-7.7c8.4-5.7,14.4-14.2,19.1-23.1
		c9-17,14-35.9,18.1-54.4c1.5-6.6,2.9-13.2,7.7-17.5c8.2-7.3,22.7-4,35.5-5.8c44.5-6,90.4,1,135.9-0.6c44.2-1.7,89.8-9,126.7-33
		c23.4-15.3,43.3-40,41.4-67.8c-1.6-23.6-20-44.4-42.6-52.1c-21.6-7.4-46.4-3.1-65.8,8.3c-8.6,5-16.9,12.3-26.8,11.6
		c-7.1-0.5-13.5-5.1-19.9-8.8c-18.6-10.7-37.1-22.1-55-35.3C494,183.4,471.8,164.4,444.9,162.4z"/>
	
		<linearGradient id="SVGID_45_" gradientUnits="userSpaceOnUse" x1="161.4468" y1="268.8498" x2="615.2132" y2="268.8498" gradientTransform="matrix(0.7269 0.6867 -0.6867 0.7269 310.3866 -148.6666)">
		<stop  offset="0" style="stop-color:#F9ED32"/>
		<stop  offset="0.1003" style="stop-color:#C6D859"/>
		<stop  offset="0.2076" style="stop-color:#95C37E"/>
		<stop  offset="0.2896" style="stop-color:#77B794"/>
		<stop  offset="0.3359" style="stop-color:#6CB29D"/>
		<stop  offset="0.3644" style="stop-color:#5BADAB"/>
		<stop  offset="0.4182" style="stop-color:#42A6C1"/>
		<stop  offset="0.4739" style="stop-color:#2FA1D0"/>
		<stop  offset="0.5323" style="stop-color:#259ED9"/>
		<stop  offset="0.5974" style="stop-color:#219DDC"/>
		<stop  offset="0.6334" style="stop-color:#3188CE"/>
		<stop  offset="0.7007" style="stop-color:#4B67B7"/>
		<stop  offset="0.7701" style="stop-color:#5F4EA5"/>
		<stop  offset="0.8416" style="stop-color:#6E3B98"/>
		<stop  offset="0.9164" style="stop-color:#763190"/>
		<stop  offset="1" style="stop-color:#792D8E"/>
	</linearGradient>
	<path class="st46" d="M444.8,160.4c-21.5-1.5-41.1,7.5-62.7,9.7c-28.9,3-53.5-2-79.5,10.8c-26,12.8-50.9,25.7-81.1,27.4
		c-13.6,0.8-29.2,1.2-37.1,12.4c-8.4,11.8-5.8,25-8.6,38.3c-5.7,27.3-38.4,40.9-54.2,64.8c-14.3,21.8-12.2,51.7,0.2,74.9
		c13,24.4,35.3,42.8,59.4,56.5c38.4,21.9,82.6,33.5,126.8,33.3c11.5-0.1,23.5-1.3,33-7.8c8.4-5.7,14.3-14.2,19-23.2
		c9.1-17.4,14.3-36.5,18.3-55.5c1.4-6.7,2.7-13.4,7.5-18c8-7.6,22.3-5.1,35-6.8c45.1-6.1,91.5,0.5,137.6-1.2
		c44.9-1.8,91.2-9.2,128.7-33.4c23.8-15.4,44.2-40.4,42.4-68.6c-1.5-23.9-20-45.1-42.8-53c-22-7.6-47.2-3.2-66.9,8.5
		c-8.7,5.2-17.1,12.5-27.3,12c-7.1-0.3-13.6-4.8-20-8.3c-19-10.6-37.8-22-55.8-35.2C494.6,181.8,472.2,162.3,444.8,160.4z"/>
	
		<linearGradient id="SVGID_46_" gradientUnits="userSpaceOnUse" x1="158.8144" y1="268.6562" x2="616.666" y2="268.6562" gradientTransform="matrix(0.7269 0.6867 -0.6867 0.7269 310.3866 -148.6666)">
		<stop  offset="0" style="stop-color:#F9ED32"/>
		<stop  offset="0.1041" style="stop-color:#C3D85B"/>
		<stop  offset="0.2097" style="stop-color:#92C580"/>
		<stop  offset="0.2904" style="stop-color:#74B996"/>
		<stop  offset="0.3359" style="stop-color:#69B59F"/>
		<stop  offset="0.3672" style="stop-color:#56B0AF"/>
		<stop  offset="0.4203" style="stop-color:#3DA8C4"/>
		<stop  offset="0.4754" style="stop-color:#2AA3D3"/>
		<stop  offset="0.533" style="stop-color:#20A0DC"/>
		<stop  offset="0.5974" style="stop-color:#1C9FDF"/>
		<stop  offset="0.6363" style="stop-color:#2E88CF"/>
		<stop  offset="0.7031" style="stop-color:#4867B8"/>
		<stop  offset="0.7719" style="stop-color:#5C4EA5"/>
		<stop  offset="0.8429" style="stop-color:#6B3B98"/>
		<stop  offset="0.9171" style="stop-color:#733191"/>
		<stop  offset="1" style="stop-color:#762D8E"/>
	</linearGradient>
	<path class="st47" d="M444.8,158.4c-21.7-1.4-41.5,8-63.3,10.3c-29.2,3.2-54-1.9-80.3,11.3c-26.4,13.2-51.8,26.5-82.5,28.2
		c-13.8,0.7-29.6,1-37.6,12.3c-8.4,11.8-5.3,25.5-7.8,38.9c-5.4,27.9-38.9,41.5-55,65.6c-14.6,22-12.5,52.3,0,75.7
		c13.1,24.5,35.5,42.8,59.7,56.6c39.2,22.3,84.3,34.1,129.3,33.9c11.6-0.1,23.8-1.3,33.5-7.9c8.3-5.7,14.2-14.3,18.9-23.2
		c9.3-17.7,14.6-37.2,18.6-56.7c1.4-6.8,2.6-13.7,7.3-18.5c7.8-7.8,22-6.1,34.4-7.8c45.7-6.2,92.6,0.1,139.2-1.7
		c45.6-1.8,92.5-9.3,130.8-33.8c24.2-15.5,45.1-40.8,43.5-69.3c-1.4-24.2-20-45.8-43.1-53.8c-22.4-7.8-48.1-3.3-68.1,8.8
		c-8.9,5.3-17.4,12.8-27.8,12.5c-7.1-0.2-13.7-4.4-20.2-7.8c-19.4-10.4-38.5-21.8-56.6-35.2C495.3,180.1,472.6,160.2,444.8,158.4z"
		/>
	
		<linearGradient id="SVGID_47_" gradientUnits="userSpaceOnUse" x1="156.1819" y1="268.462" x2="618.1215" y2="268.462" gradientTransform="matrix(0.7269 0.6867 -0.6867 0.7269 310.3866 -148.6666)">
		<stop  offset="0" style="stop-color:#F9ED32"/>
		<stop  offset="0.107" style="stop-color:#C0D85D"/>
		<stop  offset="0.2117" style="stop-color:#8FC682"/>
		<stop  offset="0.2911" style="stop-color:#71BB98"/>
		<stop  offset="0.3359" style="stop-color:#66B7A1"/>
		<stop  offset="0.3699" style="stop-color:#51B1B2"/>
		<stop  offset="0.4224" style="stop-color:#38ABC7"/>
		<stop  offset="0.4768" style="stop-color:#25A6D5"/>
		<stop  offset="0.5338" style="stop-color:#1BA3DE"/>
		<stop  offset="0.5974" style="stop-color:#17A2E1"/>
		<stop  offset="0.6406" style="stop-color:#2B88CF"/>
		<stop  offset="0.7066" style="stop-color:#4567B8"/>
		<stop  offset="0.7746" style="stop-color:#594EA6"/>
		<stop  offset="0.8447" style="stop-color:#683B99"/>
		<stop  offset="0.918" style="stop-color:#703191"/>
		<stop  offset="1" style="stop-color:#732D8F"/>
	</linearGradient>
	<path class="st48" d="M444.7,156.4c-21.9-1.3-41.9,8.6-63.8,10.9c-29.5,3.3-54.5-1.8-81.1,11.8c-26.8,13.7-52.6,27.3-83.9,28.9
		c-14,0.7-30.1,0.8-38.2,12.2c-8.3,11.8-4.7,25.9-7.1,39.5c-5.1,28.4-39.3,42-55.7,66.4c-14.9,22.2-12.9,52.9-0.2,76.6
		c13.2,24.6,35.7,42.9,59.9,56.7c39.9,22.7,85.9,34.7,131.9,34.5c11.8-0.1,24.2-1.3,33.9-7.9c8.3-5.7,14.1-14.4,18.7-23.3
		c9.4-18.1,15-37.9,18.8-57.8c1.3-6.9,2.5-13.9,7.1-18.9c7.5-8.1,21.5-8.1,33.9-8.8c46.6-2.3,93.7-0.4,140.8-2.3
		c46.2-1.9,93.9-9.5,132.8-34.2c24.6-15.6,45.9-41.1,44.5-70.1c-1.2-24.6-20-46.5-43.3-54.7c-22.7-8-48.9-3.4-69.2,9
		c-9,5.5-17.7,13.1-28.2,12.9c-7.1-0.1-13.8-4-20.3-7.3c-19.8-10.2-39.2-21.7-57.4-35.1C495.9,178.5,472.9,158.1,444.7,156.4z"/>
	
		<linearGradient id="SVGID_48_" gradientUnits="userSpaceOnUse" x1="153.5443" y1="268.2622" x2="619.5489" y2="268.2622" gradientTransform="matrix(0.7269 0.6867 -0.6867 0.7269 310.3866 -148.6666)">
		<stop  offset="0" style="stop-color:#F9ED32"/>
		<stop  offset="0.1106" style="stop-color:#BDD95F"/>
		<stop  offset="0.2137" style="stop-color:#8CC885"/>
		<stop  offset="0.2918" style="stop-color:#6EBE9B"/>
		<stop  offset="0.3359" style="stop-color:#63BAA4"/>
		<stop  offset="0.3712" style="stop-color:#4DB4B5"/>
		<stop  offset="0.4234" style="stop-color:#34ADCA"/>
		<stop  offset="0.4775" style="stop-color:#21A8D8"/>
		<stop  offset="0.5341" style="stop-color:#17A5E1"/>
		<stop  offset="0.5974" style="stop-color:#13A4E4"/>
		<stop  offset="0.6433" style="stop-color:#2988D0"/>
		<stop  offset="0.7088" style="stop-color:#4367B9"/>
		<stop  offset="0.7763" style="stop-color:#574EA6"/>
		<stop  offset="0.8459" style="stop-color:#663B99"/>
		<stop  offset="0.9187" style="stop-color:#6E3192"/>
		<stop  offset="1" style="stop-color:#712D8F"/>
	</linearGradient>
	<path class="st49" d="M444.7,154.4c-22-1.2-42.4,9.1-64.4,11.5c-29.8,3.4-55-1.7-81.9,12.3c-27.2,14.1-53.5,28.2-85.3,29.7
		c-14.1,0.7-30.6,0.5-38.8,12.2c-8.4,11.8-4.1,26.4-6.3,40.1c-4.7,29-39.7,42.5-56.4,67.1c-15.2,22.4-13.2,53.5-0.4,77.4
		c13.2,24.7,35.9,42.9,60.2,56.8c40.8,23,87.5,35.3,134.4,35.2c11.9-0.1,24.5-1.2,34.4-8c8.3-5.7,14-14.5,18.6-23.4
		c9.5-18.4,15.3-38.6,19-58.9c1.3-7,2.4-14.2,7-19.4c7.4-8.4,21.1-9,33.3-9.7c47.2-3,94.9-0.9,142.5-2.8
		c46.9-1.9,95.2-9.7,134.9-34.6c24.9-15.8,46.8-41.5,45.5-70.9c-1.2-24.9-20-47.2-43.6-55.5c-23.1-8.1-49.7-3.5-70.4,9.2
		c-9.1,5.6-17.9,13.4-28.7,13.4c-7.1,0-13.9-3.6-20.4-6.9c-20.2-10-39.8-21.5-58.2-35.1C496.5,176.9,473.3,156,444.7,154.4z"/>
	
		<linearGradient id="SVGID_49_" gradientUnits="userSpaceOnUse" x1="150.9129" y1="268.0685" x2="621.0173" y2="268.0685" gradientTransform="matrix(0.7269 0.6867 -0.6867 0.7269 310.3866 -148.6666)">
		<stop  offset="0" style="stop-color:#F9ED32"/>
		<stop  offset="0.114" style="stop-color:#BAD962"/>
		<stop  offset="0.2155" style="stop-color:#89C987"/>
		<stop  offset="0.2925" style="stop-color:#6BC09D"/>
		<stop  offset="0.3359" style="stop-color:#60BCA6"/>
		<stop  offset="0.3737" style="stop-color:#48B6B9"/>
		<stop  offset="0.4253" style="stop-color:#2FAFCD"/>
		<stop  offset="0.4788" style="stop-color:#1CABDC"/>
		<stop  offset="0.5348" style="stop-color:#12A8E4"/>
		<stop  offset="0.5974" style="stop-color:#0EA7E7"/>
		<stop  offset="0.6474" style="stop-color:#2688D1"/>
		<stop  offset="0.7121" style="stop-color:#4067BA"/>
		<stop  offset="0.7789" style="stop-color:#544EA7"/>
		<stop  offset="0.8476" style="stop-color:#633B9A"/>
		<stop  offset="0.9196" style="stop-color:#6B3193"/>
		<stop  offset="1" style="stop-color:#6E2D90"/>
	</linearGradient>
	<path class="st50" d="M444.6,152.4c-22.2-1.1-42.8,9.6-65,12.1c-30.1,3.5-55.5-1.6-82.7,12.7c-27.6,14.6-54.4,29-86.7,30.5
		c-14.3,0.7-31.1,0.3-39.3,12.1c-8.3,11.8-3.5,26.8-5.6,40.7c-4.4,29.5-40.1,43-57.2,67.9c-15.5,22.6-13.5,54-0.6,78.2
		c13.3,24.7,36.1,43,60.5,56.9c41.5,23.5,89.2,36,136.9,35.8c12.1-0.1,24.8-1.2,34.8-8.1c8.3-5.7,13.9-14.5,18.5-23.5
		c9.6-18.8,15.6-39.3,19.3-60c1.2-7.1,2.3-14.4,6.8-19.9c7.2-8.7,20.7-9.8,32.7-10.7c47.7-3.7,96-1.4,144.1-3.4
		c47.6-2,96.6-9.8,136.9-35c25.3-15.9,47.7-41.8,46.5-71.7c-1-25.2-20-47.9-43.8-56.4c-23.5-8.3-50.5-3.6-71.6,9.5
		c-9.3,5.8-18.2,13.6-29.1,13.8c-7.1,0.1-14-3.3-20.5-6.4c-20.6-9.8-40.5-21.4-59.1-35.1C497.1,175.2,473.6,153.9,444.6,152.4z"/>
	
		<linearGradient id="SVGID_50_" gradientUnits="userSpaceOnUse" x1="148.2817" y1="267.8654" x2="622.4884" y2="267.8654" gradientTransform="matrix(0.7269 0.6867 -0.6867 0.7269 310.3866 -148.6666)">
		<stop  offset="0" style="stop-color:#F9ED32"/>
		<stop  offset="0.1174" style="stop-color:#B7DA64"/>
		<stop  offset="0.2174" style="stop-color:#86CB89"/>
		<stop  offset="0.2932" style="stop-color:#68C29F"/>
		<stop  offset="0.3359" style="stop-color:#5DBFA8"/>
		<stop  offset="0.3761" style="stop-color:#43B8BC"/>
		<stop  offset="0.4272" style="stop-color:#2AB2D0"/>
		<stop  offset="0.4801" style="stop-color:#17ADDF"/>
		<stop  offset="0.5355" style="stop-color:#0DAAE7"/>
		<stop  offset="0.5974" style="stop-color:#09A9EA"/>
		<stop  offset="0.65" style="stop-color:#2388D2"/>
		<stop  offset="0.7142" style="stop-color:#3D67BA"/>
		<stop  offset="0.7805" style="stop-color:#514EA8"/>
		<stop  offset="0.8488" style="stop-color:#603B9A"/>
		<stop  offset="0.9202" style="stop-color:#683193"/>
		<stop  offset="1" style="stop-color:#6B2D90"/>
	</linearGradient>
	<path class="st51" d="M444.6,150.4c-22.4-1-43.2,10.1-65.6,12.7c-30.4,3.6-56-1.5-83.5,13.2c-28,15-55.2,29.8-88.1,31.2
		c-14.5,0.7-31.6,0.1-39.9,12c-8.3,11.8-2.9,27.2-4.8,41.3c-4.1,30.1-40.5,43.5-57.9,68.7c-15.8,22.8-13.9,54.6-0.8,79
		c13.3,24.8,36.3,43.1,60.8,57c42.3,23.9,90.8,36.6,139.4,36.4c12.3-0.1,25.2-1.2,35.2-8.2c8.3-5.7,13.8-14.6,18.4-23.6
		c9.7-19.2,16-40,19.5-61.1c1.2-7.2,2.2-14.7,6.6-20.3c7-9,20.3-10.6,32.2-11.7c48.3-4.5,97.1-1.9,145.8-4c48.3-2,97.9-9.9,139-35.4
		c25.7-16,48.5-42.2,47.5-72.4c-0.9-25.5-20-48.6-44.1-57.2c-23.8-8.6-51.4-3.8-72.7,9.7c-9.4,5.9-18.5,13.9-29.6,14.3
		c-7.1,0.2-14-2.9-20.6-5.9c-21-9.6-41.2-21.2-59.9-35C497.7,173.6,474,151.8,444.6,150.4z"/>
	
		<linearGradient id="SVGID_51_" gradientUnits="userSpaceOnUse" x1="145.65" y1="267.6752" x2="623.9622" y2="267.6752" gradientTransform="matrix(0.7269 0.6867 -0.6867 0.7269 310.3866 -148.6666)">
		<stop  offset="0" style="stop-color:#F9ED32"/>
		<stop  offset="3.140422e-03" style="stop-color:#F7EC33"/>
		<stop  offset="0.1206" style="stop-color:#B4DA66"/>
		<stop  offset="0.2191" style="stop-color:#83CC8C"/>
		<stop  offset="0.2938" style="stop-color:#65C4A2"/>
		<stop  offset="0.3359" style="stop-color:#5AC1AB"/>
		<stop  offset="0.3773" style="stop-color:#3FBABF"/>
		<stop  offset="0.4281" style="stop-color:#26B4D3"/>
		<stop  offset="0.4808" style="stop-color:#13B0E1"/>
		<stop  offset="0.5359" style="stop-color:#09ADE9"/>
		<stop  offset="0.5974" style="stop-color:#05ACEC"/>
		<stop  offset="0.6538" style="stop-color:#2188D2"/>
		<stop  offset="0.7173" style="stop-color:#3B67BB"/>
		<stop  offset="0.7829" style="stop-color:#4F4EA8"/>
		<stop  offset="0.8504" style="stop-color:#5E3B9B"/>
		<stop  offset="0.9211" style="stop-color:#663194"/>
		<stop  offset="1" style="stop-color:#692D91"/>
	</linearGradient>
	<path class="st52" d="M444.6,148.4c-22.6-0.9-43.7,10.6-66.2,13.3c-30.7,3.7-56.4-1.4-84.3,13.7c-28.5,15.5-56.1,30.6-89.5,32
		c-14.6,0.6-32.1-0.1-40.5,11.9c-8.3,11.9-2.4,27.7-4.1,41.9c-3.7,30.6-40.9,44.1-58.7,69.4c-16.1,23-14.2,55.2-1,79.9
		c13.4,24.9,36.5,43.2,61.1,57.1c43.1,24.3,92.5,37.2,141.9,37c12.4-0.1,25.5-1.2,35.7-8.2c8.3-5.7,13.7-14.7,18.3-23.6
		c9.8-19.5,16.3-40.6,19.7-62.2c1.2-7.3,2.1-14.9,6.4-20.8c6.8-9.3,19.9-11.5,31.6-12.7c48.8-5.3,98.2-2.4,147.4-4.5
		c49-2.1,99.3-10.1,141-35.8c26.1-16.2,49.4-42.5,48.5-73.2c-0.8-25.8-20-49.3-44.3-58.1c-24.2-8.7-52.2-3.9-73.9,10
		c-9.5,6.1-18.8,14.1-30.1,14.7c-7.2,0.3-14.1-2.5-20.7-5.4c-21.4-9.4-41.8-21.1-60.7-35C498.3,171.9,474.4,149.6,444.6,148.4z"/>
	
		<linearGradient id="SVGID_52_" gradientUnits="userSpaceOnUse" x1="143.0184" y1="267.4846" x2="625.4385" y2="267.4846" gradientTransform="matrix(0.7269 0.6867 -0.6867 0.7269 310.3866 -148.6666)">
		<stop  offset="0" style="stop-color:#F9ED32"/>
		<stop  offset="1.026361e-02" style="stop-color:#F4EC36"/>
		<stop  offset="0.1788" style="stop-color:#9ED677"/>
		<stop  offset="0.3276" style="stop-color:#5AC5AA"/>
		<stop  offset="0.4511" style="stop-color:#29B8D0"/>
		<stop  offset="0.5447" style="stop-color:#0BB1E6"/>
		<stop  offset="0.5974" style="stop-color:#00AEEF"/>
		<stop  offset="0.6562" style="stop-color:#1E88D3"/>
		<stop  offset="0.7193" style="stop-color:#3867BC"/>
		<stop  offset="0.7844" style="stop-color:#4C4EA9"/>
		<stop  offset="0.8515" style="stop-color:#5B3B9C"/>
		<stop  offset="0.9216" style="stop-color:#633194"/>
		<stop  offset="1" style="stop-color:#662D91"/>
	</linearGradient>
	<path class="st53" d="M201.7,207.3c-14.8,0.6-32.6-0.3-41,11.9c-8.3,11.9-1.8,28.1-3.4,42.5c-3.4,31.2-41.3,44.6-59.4,70.2
		c-16.3,23.1-14.6,55.7-1.2,80.7c13.4,25,36.7,43.2,61.4,57.2c43.8,24.7,94.1,37.8,144.4,37.6c12.6,0,25.8-1.1,36.1-8.3
		c8.3-5.7,13.7-14.7,18.1-23.7c9.9-19.9,16.7-41.3,20-63.3c1.1-7.4,2-15.2,6.2-21.3c6.7-9.6,19.5-12.3,31.1-13.7
		c49.4-6.1,99.3-2.9,149-5.1c49.7-2.2,100.7-10.2,143.1-36.2c26.5-16.3,50.3-42.9,49.5-74c-0.7-26.1-20-50-44.6-58.9
		c-24.6-8.9-53-3.9-75,10.2c-9.7,6.2-19.1,14.4-30.5,15.1c-7.2,0.5-14.2-2.1-20.9-4.9c-21.8-9.1-42.5-20.9-61.5-35
		c-24.3-18-48.5-40.7-78.7-41.8c-22.8-0.8-44.1,11.2-66.8,13.9c-31,3.8-56.9-1.3-85.1,14.2C263.8,190.5,235.7,205.9,201.7,207.3z"/>
</g>
</svg>
