<svg xmlns="http://www.w3.org/2000/svg" width="81.86" height="78.395" viewBox="0 0 81.86 78.395">
  <g id="Layer_2" data-name="Layer 2" opacity="0.59">
    <g id="Layer_1" data-name="Layer 1" transform="translate(0 0)">
      <circle id="Ellipse_6" data-name="Ellipse 6" cx="3.681" cy="3.681" r="3.681" transform="translate(0 0)" fill="#fff"/>
      <circle id="Ellipse_7" data-name="Ellipse 7" cx="3.681" cy="3.681" r="3.681" transform="translate(18.625 0)" fill="#fff"/>
      <circle id="Ellipse_8" data-name="Ellipse 8" cx="3.681" cy="3.681" r="3.681" transform="translate(37.249 0)" fill="#fff"/>
      <circle id="Ellipse_9" data-name="Ellipse 9" cx="3.681" cy="3.681" r="3.681" transform="translate(55.873 0)" fill="#fff"/>
      <circle id="Ellipse_10" data-name="Ellipse 10" cx="3.681" cy="3.681" r="3.681" transform="translate(74.497 0)" fill="#fff"/>
      <circle id="Ellipse_11" data-name="Ellipse 11" cx="3.681" cy="3.681" r="3.681" transform="translate(0 17.758)" fill="#fff"/>
      <circle id="Ellipse_12" data-name="Ellipse 12" cx="3.681" cy="3.681" r="3.681" transform="translate(18.625 17.758)" fill="#fff"/>
      <circle id="Ellipse_13" data-name="Ellipse 13" cx="3.681" cy="3.681" r="3.681" transform="translate(37.249 17.758)" fill="#fff"/>
      <circle id="Ellipse_14" data-name="Ellipse 14" cx="3.681" cy="3.681" r="3.681" transform="translate(55.873 17.758)" fill="#fff"/>
      <circle id="Ellipse_15" data-name="Ellipse 15" cx="3.681" cy="3.681" r="3.681" transform="translate(74.497 17.758)" fill="#fff"/>
      <circle id="Ellipse_16" data-name="Ellipse 16" cx="3.681" cy="3.681" r="3.681" transform="translate(0 35.516)" fill="#fff"/>
      <circle id="Ellipse_17" data-name="Ellipse 17" cx="3.681" cy="3.681" r="3.681" transform="translate(18.625 35.516)" fill="#fff"/>
      <circle id="Ellipse_18" data-name="Ellipse 18" cx="3.681" cy="3.681" r="3.681" transform="translate(37.249 35.516)" fill="#fff"/>
      <circle id="Ellipse_19" data-name="Ellipse 19" cx="3.681" cy="3.681" r="3.681" transform="translate(55.873 35.516)" fill="#fff"/>
      <circle id="Ellipse_20" data-name="Ellipse 20" cx="3.681" cy="3.681" r="3.681" transform="translate(74.497 35.516)" fill="#fff"/>
      <circle id="Ellipse_21" data-name="Ellipse 21" cx="3.681" cy="3.681" r="3.681" transform="translate(0 53.274)" fill="#fff"/>
      <circle id="Ellipse_22" data-name="Ellipse 22" cx="3.681" cy="3.681" r="3.681" transform="translate(18.625 53.274)" fill="#fff"/>
      <circle id="Ellipse_23" data-name="Ellipse 23" cx="3.681" cy="3.681" r="3.681" transform="translate(37.249 53.274)" fill="#fff"/>
      <circle id="Ellipse_24" data-name="Ellipse 24" cx="3.681" cy="3.681" r="3.681" transform="translate(55.873 53.274)" fill="#fff"/>
      <circle id="Ellipse_25" data-name="Ellipse 25" cx="3.681" cy="3.681" r="3.681" transform="translate(74.497 53.274)" fill="#fff"/>
      <circle id="Ellipse_26" data-name="Ellipse 26" cx="3.681" cy="3.681" r="3.681" transform="translate(0 71.033)" fill="#fff"/>
      <circle id="Ellipse_27" data-name="Ellipse 27" cx="3.681" cy="3.681" r="3.681" transform="translate(18.625 71.033)" fill="#fff"/>
      <circle id="Ellipse_28" data-name="Ellipse 28" cx="3.681" cy="3.681" r="3.681" transform="translate(37.249 71.033)" fill="#fff"/>
      <circle id="Ellipse_29" data-name="Ellipse 29" cx="3.681" cy="3.681" r="3.681" transform="translate(55.873 71.033)" fill="#fff"/>
      <circle id="Ellipse_30" data-name="Ellipse 30" cx="3.681" cy="3.681" r="3.681" transform="translate(74.497 71.033)" fill="#fff"/>
    </g>
  </g>
</svg>
