<?xml version="1.0" encoding="utf-8"?>
<!-- Generator: Adobe Illustrator 22.0.0, SVG Export Plug-In . SVG Version: 6.00 Build 0)  -->
<svg version="1.1" id="Layer_1" xmlns="http://www.w3.org/2000/svg" xmlns:xlink="http://www.w3.org/1999/xlink" x="0px" y="0px"
	 viewBox="0 0 283.9 205.3" style="enable-background:new 0 0 283.9 205.3;" xml:space="preserve">
<style type="text/css">
	.st0{fill:#031A43;}
	.st1{fill:#CCCB01;}
	.st2{fill:#FEFEFE;}
</style>
<g>
	<path class="st1" d="M139.8,176.9c-2.6,0.7-5.3,1.4-7.9,2c-3,0.7-6,1.2-9,1.7c-2.9,0.5-5.8,0.8-8.7,1.2c-0.8,0.1-1.6-0.2-2.3,0.3
		c-1.5-0.1-3,0.1-4.5,0.2c-5.6,0.2-11.2,0-16.8-0.5c-1.6-0.5-3.3-0.5-5-0.8c-4.9-0.9-9.6-2.2-13.9-4.8c-4.3-2.6-6.9-7.5-5.4-12.7
		c1-3.7,2.4-7.2,4.2-10.6c2.1-3.9,4.7-7.2,9-8.8c2.7-1,5.4-1.9,8.4-1.3c0.5,0.1,1.1,0.1,1.2,0.7c0.1,0.7-0.3,1.1-0.8,1.4
		c-1.1,0.8-2.4,1.4-3.7,1.9c-1,0.4-1.9,0.8-2.6,1.6c-0.7,0.9-0.5,1.6,0.5,2.1c0.7,0.3,1.4,0.5,2.1,0.6c2.6,0.5,5.2,0.6,7.8,0.8
		c4.3,0.3,8.5,0.2,12.8,0.1c6.3,0,12.6-0.2,18.9-0.9c2.9,0.1,5.7-0.5,8.6-1c6.8-1.2,13.4-3.2,19.5-6.7c0.8-0.4,1.7-0.7,2.2-1.5
		c3.6-2.1,6.7-4.8,9.7-7.8c0.3-0.3,0.6-0.6,0.4-1.1c-1.2-2.5-2.6-4.9-4.7-6.9c-0.2-0.5-0.5-0.9-0.9-1.3c-2-2-4.2-3.8-6.5-5.3
		c-5-3.3-10.6-5.3-16.4-6.7c-4.3-1-8.7-1.9-13-3.3c-8.4-2.7-16.2-6.8-23.5-11.8c-2.4-1.6-4-3.7-5-6.3c-0.6-1.5-0.9-3.1-1.2-4.6
		c0.2-5.3,0.5-10.6,1.6-15.8c2.1-10,5.1-19.6,12.8-27c1.4-1.1,2.7-2.1,4.1-3.2c6.9-5,14.5-8.5,22.5-11.3c5.2-1.8,10.5-3,15.9-3.9
		c3.5-0.6,6.9-0.9,10.4-1.2c4.4-0.4,8.9-0.6,13.3-0.4c6.2,0.3,12.4,0.6,18.4,2.8c0.8,0.3,1.5,0.8,2.3,0.9c0.3,0.2,0.5,0.4,0.8,0.6
		c2.7,1.7,4.1,4.1,4,7.4c-0.1,5-0.5,10-2.6,14.7c-1.4,2.4-2.8,4.7-5.3,6.1c-0.1,0.1-0.1,0.1-0.2,0.2c0,0,0,0,0,0
		c-2.7,1.4-5.4,2.9-8.2,4.1c-6,2.4-11.3,6.1-16.3,10.1c-1,0.8-1.9,1.5-3,2.2c-0.3,0.2-0.8,0.6-1.3,0.2c-0.4-0.4-0.4-0.9-0.3-1.3
		c0.1-0.5,0.3-1.1,0.6-1.5c2.2-4,5.3-7.2,9-9.8c2.2-1.5,4.5-3,6.6-4.7c0.5-0.3,0.9-0.8,0.8-1.4c-0.1-0.6-0.6-0.9-1.2-1
		c-0.9-0.2-1.8-0.4-2.8-0.5c-5.5-0.1-10.9,0.1-16.3,0.7c-2.8,0.3-5.6,0.6-8.3,1.1c-3.9,0.7-7.7,1.5-11.5,2.6
		c-4.7,1.3-9.3,2.8-13.7,5c-3.8,1.8-7.4,3.9-10.6,6.7c-2.4,2.1-4.6,4.3-5.8,7.3c-1.8,4.4-1.4,9.1,4.4,11.1c4,1.4,7.9,2.9,12,4.3
		c5.3,1.8,10.6,3.6,15.7,6c4.6,2.1,9.1,4.4,13.5,7c3.6,2.1,6.8,4.6,10.2,7c2.2,1.9,4.2,3.9,6,6.1c0.5,0.9,0.9,1.8,1.8,2.4
		c1.7,2.7,2.9,5.7,3.8,8.8c0.1,2.1,0.5,4.2,0.5,6.4c-0.1,5.1-1.1,9.9-3.1,14.5c-2.2,5.1-5.2,9.6-9.2,13.5c-3.1,3.1-6.6,5.7-10.6,7.7
		c-0.7,0.4-1.5,0.7-2.1,1.3C148,174.1,144,175.7,139.8,176.9z"/>
	<path class="st0" d="M107.6,44.2c-7.7,7.4-10.7,17-12.8,27c-1.1,5.2-1.5,10.5-1.6,15.8c-4.6,3.4-9.8,5.9-15.4,7.9
		c0.8,0.2,1.2,0.3,1.7,0.4c10,2.4,19.4,6.1,27.5,12.9c9.1,7.6,14.5,17.2,16.4,28.8c0.8,4.7,0.9,9.4,0.7,14.2
		c-6.3,0.7-12.6,0.9-18.9,0.9c0.3-7.1-0.5-14-2.7-20.8c-5.9-17.9-18-28.5-36.7-31.4c-7.1-1.1-14.3-0.4-21.4,0.5
		c-1.1,0.1-1.2,0.6-1.2,1.5c0.1,22.8-0.2,45.5,0.2,68.3c0.1,4.1,0.2,8.3,1.4,12.3c1.2,4.1,3.7,6,7.9,6.4c4.2,0.4,8.4,0.5,12.6,0.4
		c9-0.3,17.6-2.2,25.2-7.5c5.6,0.5,11.2,0.7,16.8,0.5c1.5,0,3-0.3,4.5-0.2c-2.8,2.7-6.3,4.3-9.8,5.8c-9.5,4-19.4,6.6-29.8,7.5
		c-6.4,0.6-12.7,0.2-19.1-0.1c-4.7-0.2-9.3-0.3-14-0.5c-9.6-0.3-19.1,0.3-28.6,1c-1.5,0.1-1.5,0.1-1.5-1.4c0-0.8,0.1-1.6,0-2.4
		c-0.2-1.3,0.5-1.6,1.6-1.7c2.1-0.2,4.1-0.6,6.1-1.2c4.7-1.5,7.2-4.8,8-9.6c1.2-7.5,1.5-15,1.8-22.6c0.3-8.3,0.5-16.7,0.7-25
		c0.3-9.9,0.3-19.7,0.4-29.6c0.1-8.9,0.2-17.8,0.1-26.6c-0.1-10.9-0.2-21.7-1.2-32.6c-0.4-5-0.9-9.9-2-14.8
		c-1.3-5.5-4.6-8.9-10.1-10.2c-1.4-0.3-2.9-0.7-4.3-1c-0.6-0.1-0.9-0.4-0.8-1c0.1-1.2,0.1-2.5,0-3.7c0-0.7,0.2-0.8,0.8-0.7
		c5.8,0.6,11.5,0.9,17.3,1.1c4.6,0.2,9.2-0.2,13.8-0.5c8.6-0.5,17.1-1.9,25.7-1.8c14,0.3,25.7,5.7,33.9,17.5
		C104.3,33,106.4,38.4,107.6,44.2z M43.3,65.4c0,2.9,0,5.8,0,8.8c0,6.4,0,12.7-0.1,19.1c0,0.7,0.2,0.8,0.9,0.7
		c1.2-0.2,2.4-0.3,3.6-0.3c6.1-0.1,12.2-0.6,18.2-1.7c9.5-1.7,16.4-7,20.6-15.6c2.1-4.2,2.8-8.9,3.1-13.5c0.5-6.9,0.2-13.8-1.8-20.5
		c-1.9-6.6-5.3-12.3-10.4-16.9c-6.5-5.7-14.2-8.3-22.8-7.9c-2.1,0.1-4.3,0.2-6.3,1c-1.3,0.5-2.1,1.4-2.5,2.8c-0.9,4-1.1,8-1.3,12
		C43.9,44.1,43.6,54.7,43.3,65.4z"/>
	<path class="st0" d="M196.8,50.6c2.1-4.7,2.4-9.7,2.6-14.7c0.1-3.3-1.3-5.7-4-7.4c-0.3-0.2-0.5-0.4-0.8-0.6c1.5-4.9,3-9.8,4.3-14.8
		c0.2-0.7,0.3-1.3,0.3-2c0.1-1.5,0.5-1.9,1.9-2c0.3,0,0.6,0,0.8,0c2-0.2,2-0.2,2.5,1.7c3.1,13.1,7,26,11.2,38.8
		c5.7,17.8,11.4,35.5,17.1,53.3c6.6,20.7,13.4,41.4,20.7,61.9c2,5.5,4.2,10.9,6.8,16.1c2.2,4.3,5.7,6.6,10.3,7.6
		c1.1,0.2,2.1,0.4,3.2,0.6c0.5,0.1,0.8,0.2,0.8,0.9c-0.1,1.2-0.1,2.3,0,3.5c0,0.8-0.3,0.8-0.9,0.8c-7.4-1-14.9-1.2-22.4-1.1
		c-6.1,0.1-12.1,0.5-18.2,1.1c-2,0.2-4,0.3-6,0.6c-0.6,0.1-0.9-0.1-0.8-0.8c0.1-1.2-0.3-2.6,0.1-3.5c0.5-1,2.1-0.7,3.1-1
		c1.4-0.5,2.7-0.9,4-1.4c4-1.7,5.5-4.3,4.9-8.7c-0.9-7-3.1-13.6-5.2-20.2c-3-9.4-5.9-18.7-8.9-28.1c-0.2-0.7-0.5-1.1-1.3-1.2
		c-3.9-0.5-7.9-0.8-11.8-0.9c-10.2-0.3-20.3-0.2-30.5-0.2c-1.5,0-3,0.2-4.4,0.2c-0.9-3.1-2.1-6-3.8-8.8c4.6,0.6,9.2,0.9,13.9,1
		c5.2,0.2,10.5-0.2,15.7-0.2c6.2,0,12.4-0.1,18.6-0.5c0-0.2-0.1-0.3-0.1-0.5c-1.7-5.9-3.6-11.8-5.6-17.6c-2.6-7.5-5-15-7.6-22.5
		C204.1,70.2,200.6,60.3,196.8,50.6z"/>
	<path class="st0" d="M139.8,176.9c4.1-1.3,8.1-2.8,12.1-4.5c-0.2,1.4-0.6,2.8-0.7,4.2c-0.2,4.9,2.4,8.6,7.3,10.7
		c3.5,1.5,7.2,2.3,10.9,2.9c1,0.2,1.4,0.5,1.2,1.5c0,0,0,0.1,0,0.1c-0.1,1.1,0.5,2.5-0.3,3.1c-0.6,0.5-2-0.1-3-0.2
		c-8.3-1-16.6-1.5-24.9-1.3c-5.7,0.1-11.5,0.4-17.2,1.1c-0.9,0.1-1.1-0.2-1-1c0.1-1-0.3-2.2,0.2-2.9c0.4-0.7,1.7-0.7,2.6-1.1
		c5.6-2.1,9.6-6,12.2-11.4C139.4,177.8,139.6,177.4,139.8,176.9z"/>
	<path class="st0" d="M191.3,56.9c-0.4,2.1-1.3,4.1-2,6.2c-6.1,17.6-11.8,35.3-17.7,53c-0.2,0.6-0.5,1.2-0.7,1.9
		c-1.9-2.2-3.9-4.2-6-6.1c2.9-8.2,5.8-16.4,8.8-24.5c3.1-8.7,6.3-17.4,9.5-26.1c0-0.1,0-0.2,0-0.2C186,59.7,188.6,58.2,191.3,56.9z"
		/>
	<path class="st0" d="M154.3,142c1.7-5.1,3.5-10.1,5.2-15.2c0.1-0.2,0.1-0.4,0.1-0.6c2,2,3.4,4.4,4.7,6.9c0.3,0.5-0.1,0.8-0.4,1.1
		C161,137.2,157.9,139.9,154.3,142z"/>
	<path class="st0" d="M191.5,56.7c0,0.1,0,0.3-0.2,0.2C191.4,56.8,191.4,56.8,191.5,56.7z"/>
</g>
</svg>
